<?xml version="1.0" encoding="UTF-8" standalone="no"?>
<svg
   xmlns:dc="http://purl.org/dc/elements/1.1/"
   xmlns:cc="http://creativecommons.org/ns#"
   xmlns:rdf="http://www.w3.org/1999/02/22-rdf-syntax-ns#"
   xmlns:svg="http://www.w3.org/2000/svg"
   xmlns="http://www.w3.org/2000/svg"
   version="1.1"
   id="svg15031"
   viewBox="0 0 165.71428 165.71428"
   height="46.768253mm"
   width="46.768253mm">
  <defs
     id="defs15033" />
  <metadata
     id="metadata15036">
    <rdf:RDF>
      <cc:Work
         rdf:about="">
        <dc:format>image/svg+xml</dc:format>
        <dc:type
           rdf:resource="http://purl.org/dc/dcmitype/StillImage" />
        <dc:title></dc:title>
      </cc:Work>
    </rdf:RDF>
  </metadata>
  <g
     transform="translate(-212.30746,-499.68234)"
     id="layer1">
    <path
       id="rect48421"
       d="m 267.69835,513.08079 c -1.47124,-0.1031 -2.98906,0.21778 -4.36787,1.01384 -3.67687,2.12278 -4.92838,6.79162 -2.80543,10.46849 l 9.767,16.9195 c -4.02299,3.37216 -7.35533,7.53364 -9.77393,12.24977 l -10.84341,-2.90623 c -4.30067,-1.15232 -8.68774,1.37987 -9.84006,5.68037 -1.15232,4.30067 1.37987,8.69112 5.68036,9.84344 l 10.74279,2.88187 c -0.0551,0.85597 -0.0942,1.71657 -0.0942,2.58677 l 0,12.26008 -12.74966,0 c -4.45231,0 -8.03799,3.58567 -8.03799,8.03798 0,4.45231 3.58568,8.03443 8.03799,8.03443 l 12.74966,0 0,12.30861 c 0,0.14222 0.0178,0.28195 0.0178,0.42363 l -10.65942,2.85752 c -4.30049,1.1525 -6.83268,5.54277 -5.68036,9.84344 1.15232,4.30067 5.53939,6.83269 9.84006,5.68054 l 9.91633,-2.65627 c 6.15697,13.81559 19.97807,23.40908 36.13084,23.40908 13.7939,0 25.87105,-7.00868 32.94356,-17.65583 l -13.43018,-13.43356 c -5.36269,3.44754 -11.48997,5.36446 -18.38488,5.36446 -19.1525,0 -34.47471,-15.32221 -34.47471,-34.47471 0,-19.1525 15.32221,-34.47471 34.47471,-34.47471 19.1525,0 34.47471,15.32221 34.47471,34.47471 0,6.89491 -1.9171,13.02219 -5.36446,18.38488 l 18.38487,18.38825 c 0.77794,0.58363 1.35659,1.3669 1.73951,2.29522 2.20455,-0.9285 3.98281,-2.80205 4.65266,-5.30206 1.15232,-4.30067 -1.37987,-8.69094 -5.68037,-9.84344 l -9.7949,-2.62481 c 0,-0.21937 0.0178,-0.43608 0.0178,-0.65634 l 0,-12.30861 11.6281,0 c 4.45231,0 8.03799,-3.58212 8.03799,-8.03443 0,-4.45231 -3.58568,-8.03798 -8.03799,-8.03798 l -11.6281,0 0,-12.26008 c 0,-0.94824 -0.0462,-1.88475 -0.11022,-2.81592 l 9.8886,-2.65272 c 4.30049,-1.15232 6.83269,-5.54277 5.68036,-9.84344 -1.15232,-4.3005 -5.54294,-6.83269 -9.84344,-5.68037 l -10.07277,2.69788 c -2.56223,-4.92483 -6.12888,-9.23351 -10.43364,-12.66291 l 9.4095,-16.29801 c 2.12278,-3.67687 0.87144,-8.34571 -2.80543,-10.46849 -3.67705,-2.12278 -8.34571,-0.87144 -10.46849,2.80543 l -9.77055,16.91967 c -3.50017,-1.00779 -7.19801,-1.55888 -11.03097,-1.55888 -4.18423,0 -8.20953,0.65047 -11.98915,1.84368 l -9.93375,-17.20447 c -1.32689,-2.29807 -3.64843,-3.64789 -6.10062,-3.81927 z m 29.15203,59.58508 c -10.72537,0 -19.1557,8.42677 -19.1557,19.15214 0,10.72537 8.43033,19.15215 19.1557,19.15215 10.72537,0 19.15214,-8.42678 19.15214,-19.15215 0,-10.72537 -8.42677,-19.15214 -19.15214,-19.15214 z"
       style="color:#000000;clip-rule:nonzero;display:inline;overflow:visible;visibility:visible;opacity:1;isolation:auto;mix-blend-mode:normal;color-interpolation:sRGB;color-interpolation-filters:linearRGB;solid-color:#000000;solid-opacity:1;fill:#ffffff;fill-opacity:0.99607843;fill-rule:nonzero;stroke:none;stroke-width:6;stroke-linecap:round;stroke-linejoin:round;stroke-miterlimit:4;stroke-dasharray:none;stroke-dashoffset:0;stroke-opacity:0.99607843;marker:none;color-rendering:auto;image-rendering:auto;shape-rendering:auto;text-rendering:auto;enable-background:accumulate" />
  </g>
</svg>
