<?xml version="1.0" encoding="UTF-8" standalone="no"?>
<svg
   xmlns:dc="http://purl.org/dc/elements/1.1/"
   xmlns:cc="http://creativecommons.org/ns#"
   xmlns:rdf="http://www.w3.org/1999/02/22-rdf-syntax-ns#"
   xmlns:svg="http://www.w3.org/2000/svg"
   xmlns="http://www.w3.org/2000/svg"
   version="1.1"
   id="svg13884"
   viewBox="0 0 630.16584 285.09357"
   height="285.09357"
   width="630.16583">
  <defs
     id="defs13886" />
  <metadata
     id="metadata13889">
    <rdf:RDF>
      <cc:Work
         rdf:about="">
        <dc:format>image/svg+xml</dc:format>
        <dc:type
           rdf:resource="http://purl.org/dc/dcmitype/StillImage" />
        <dc:title></dc:title>
      </cc:Work>
    </rdf:RDF>
  </metadata>
  <g
     transform="translate(-9.3473301,-371.565)"
     id="layer1">
    <path
       id="rect31742-1-5"
       d="m 74.878846,378.06729 c -2.404063,0.0649 -4.828783,0.71522 -7.066063,2.00681 -7.15872,4.13316 -9.595098,13.22269 -5.461937,20.38153 l 19.015477,32.937 c -7.832233,6.56492 -14.317689,14.66822 -19.026567,23.84942 L 41.23139,451.58594 c -8.373189,-2.24351 -16.922162,2.69008 -19.165607,11.06327 -2.243693,8.37344 2.691851,16.92195 11.06504,19.16568 l 20.8997,5.59931 c -0.107007,1.66883 -0.166535,3.35147 -0.166535,5.04825 l 0,23.86591 -24.82728,0 c -8.668594,0 -15.648165,6.97961 -15.648165,15.6482 0,8.6686 6.979571,15.6464 15.648165,15.6464 l 24.82728,0 0,23.96119 c 0,0.27779 0.01063,0.55406 0.01063,0.83129 l -20.742201,5.55722 c -8.373153,2.24373 -13.308732,10.7922 -11.065004,19.16568 2.24341,8.37319 10.792488,13.30671 19.165677,11.06326 l 19.301174,-5.17096 c 11.987433,26.89959 38.899205,45.57317 70.349026,45.57317 26.85696,0 50.39391,-13.62504 64.16384,-34.35431 L 168.8741,588.07647 c -10.44124,6.71212 -22.37467,10.44067 -35.79902,10.44067 -37.2898,0 -67.120974,-29.83117 -67.120974,-67.12097 0,-37.28983 29.831174,-67.12097 67.120974,-67.12097 37.28983,0 67.12097,29.83114 67.12097,67.12097 0,13.42435 -3.72852,25.35778 -10.44064,35.79888 l 35.79888,35.79715 c 1.52777,1.1458 2.65869,2.68742 3.40399,4.51538 4.29441,-1.8078 7.73709,-5.49985 9.0417,-10.36924 2.24373,-8.37348 -2.68997,-16.92195 -11.06316,-19.16568 l -19.05034,-5.10499 c 0.0106,-0.42739 0.0142,-0.85443 0.0142,-1.28352 l 0,-23.96119 22.64287,0 c 8.66852,0 15.64632,-6.9778 15.64632,-15.6464 0,-8.66859 -6.9778,-15.6482 -15.64632,-15.6482 l -22.64287,0 0,-23.86591 c 0,-1.84818 -0.0695,-3.68018 -0.19594,-5.49499 l 19.23161,-5.15257 c 8.37316,-2.24373 13.30696,-10.79224 11.06324,-19.16568 -2.24352,-8.37319 -10.79061,-13.30678 -19.1638,-11.06327 l -19.61607,5.25515 c -4.98947,-9.58904 -11.93053,-17.97813 -20.31197,-24.65511 l 18.31978,-31.73035 c 4.13316,-7.15884 1.69678,-16.24837 -5.46208,-20.38153 -7.15882,-4.13316 -16.24836,-1.69678 -20.38153,5.46206 l -19.00997,32.92604 c -6.81648,-1.9635 -14.02604,-3.01941 -21.49108,-3.01941 -8.14819,0 -15.98942,1.26112 -23.34965,3.58519 L 88.195516,385.53429 c -2.841591,-4.92169 -8.026158,-7.60988 -13.3155,-7.467 z m 58.196404,116.03944 c -20.88223,0 -37.289404,16.4071 -37.289404,37.28944 0,20.88223 16.407174,37.28941 37.289404,37.28941 20.88227,0 37.28945,-16.40718 37.28945,-37.28941 0,-20.88234 -16.40718,-37.28944 -37.28945,-37.28944 z"
       style="color:#000000;clip-rule:nonzero;display:inline;overflow:visible;visibility:visible;opacity:1;isolation:auto;mix-blend-mode:normal;color-interpolation:sRGB;color-interpolation-filters:linearRGB;solid-color:#000000;solid-opacity:1;fill:#ffffff;fill-opacity:0.99607843;fill-rule:nonzero;stroke:none;stroke-width:3.65570831;stroke-linecap:round;stroke-linejoin:round;stroke-miterlimit:4;stroke-dasharray:none;stroke-dashoffset:0;stroke-opacity:0.99607843;marker:none;color-rendering:auto;image-rendering:auto;shape-rendering:auto;text-rendering:auto;enable-background:accumulate" />
    <g
       id="text31776-3-7"
       style="font-style:normal;font-weight:normal;font-size:56.7987175px;line-height:0%;font-family:sans-serif;letter-spacing:0px;word-spacing:0px;opacity:1;fill:#ffffff;fill-opacity:1;stroke:none;stroke-width:1px;stroke-linecap:butt;stroke-linejoin:miter;stroke-opacity:1">
      <path
         id="path16314"
         style="font-style:normal;font-variant:normal;font-weight:normal;font-stretch:normal;font-size:94.66452789px;line-height:1.25;font-family:COCOGOOSE;-inkscape-font-specification:COCOGOOSE;fill:#ffffff;fill-opacity:1"
         d="m 276.61811,425.19603 q 0,-0.85198 0.52066,-1.4673 0.52065,-0.61532 1.56196,-0.61532 l 13.91569,0 q 0.70998,0 1.51463,0.56799 0.80465,0.56799 0.80465,1.51463 l 0,66.12318 q 0,2.08261 -2.31928,2.08261 l -13.91569,0 q -2.08262,0 -2.08262,-2.08261 l 0,-66.12318 z" />
      <path
         id="path16316"
         style="font-style:normal;font-variant:normal;font-weight:normal;font-stretch:normal;font-size:94.66452789px;line-height:1.25;font-family:COCOGOOSE;-inkscape-font-specification:COCOGOOSE;fill:#ffffff;fill-opacity:1"
         d="m 371.13325,458.32862 q 0,5.01722 -1.27797,9.56111 -1.27797,4.49657 -3.64459,8.42515 -2.36661,3.88124 -5.67987,7.0525 -3.26592,3.17127 -7.28917,5.39588 -3.97591,2.22462 -8.61447,3.45526 -4.63856,1.1833 -9.60845,1.1833 l -23.3348,0 q -0.85199,0 -1.51464,-0.37865 -0.66265,-0.37866 -0.66265,-1.6093 l 0,-66.12317 q 0,-0.99398 0.52066,-1.6093 0.56798,-0.61532 1.65663,-0.61532 l 23.3348,0 q 4.96989,0 9.56112,1.23064 4.63856,1.23064 8.61447,3.50259 4.02324,2.27195 7.3365,5.44321 3.31326,3.17126 5.63254,7.09984 2.36661,3.92857 3.64459,8.47247 1.3253,4.5439 1.3253,9.51379 z m -43.30902,-18.27026 0,36.39851 3.97591,0 q 1.08864,0 2.12995,-0.0473 1.04131,-0.0947 2.08262,-0.18933 3.54992,-0.28399 6.62652,-1.70396 3.07659,-1.4673 5.34854,-3.78658 2.31928,-2.36661 3.59725,-5.53787 1.32531,-3.17127 1.32531,-6.91051 0,-3.97592 -1.51464,-7.28917 -1.4673,-3.36059 -4.02324,-5.77454 -2.55594,-2.46128 -6.01119,-3.78658 -3.40793,-1.37264 -7.28917,-1.37264 l -6.24786,0 z" />
      <path
         id="path16318"
         style="font-style:normal;font-variant:normal;font-weight:normal;font-stretch:normal;font-size:94.66452789px;line-height:1.25;font-family:COCOGOOSE;-inkscape-font-specification:COCOGOOSE;fill:#ffffff;fill-opacity:1"
         d="m 383.76505,459.98525 q 0,-2.08262 2.08262,-2.08262 l 32.2806,0 q 0.85198,0 1.4673,0.56798 0.61532,0.52066 0.61532,1.51464 l 0,9.60845 q 0,0.70998 -0.56799,1.51463 -0.56799,0.75731 -1.51463,0.75731 l -32.2806,0 q -2.08262,0 -2.08262,-2.27194 l 0,-9.60845 z" />
      <path
         id="path16320"
         style="font-style:normal;font-variant:normal;font-weight:normal;font-stretch:normal;font-size:94.66452789px;line-height:1.25;font-family:COCOGOOSE;-inkscape-font-specification:COCOGOOSE;fill:#ffffff;fill-opacity:1"
         d="m 435.57316,425.2907 q 0,-0.99398 0.52066,-1.56197 0.56798,-0.61532 1.56196,-0.61532 l 31.42863,0 q 4.16523,0 7.85715,1.6093 3.69192,1.56196 6.43719,4.35457 2.7926,2.74527 4.4019,6.48452 1.6093,3.69191 1.6093,7.95182 0,3.54992 -1.13598,6.62652 -1.08864,3.02926 -3.12393,5.44321 3.40793,3.12393 5.39588,7.43116 1.98796,4.30724 1.98796,9.13513 0,4.30723 -1.65663,8.18848 -1.65663,3.83391 -4.49657,6.76851 -2.7926,2.88727 -6.57918,4.59123 -3.73925,1.70396 -7.90449,1.70396 l -34.22123,0 q -0.94664,0 -1.51463,-0.47332 -0.56799,-0.52065 -0.56799,-1.56196 l 0,-66.07584 z m 38.14981,46.14895 q 0,-1.41996 -0.56799,-2.83993 -0.52066,-1.41997 -1.51463,-2.50861 -0.94665,-1.13598 -2.31928,-1.84596 -1.32531,-0.70998 -2.88727,-0.70998 l -12.49572,0 0,15.80897 12.49572,0 q 1.56196,0 2.88727,-0.66265 1.3253,-0.66265 2.31928,-1.75129 0.99397,-1.13598 1.51463,-2.55595 0.56799,-1.41996 0.56799,-2.9346 z m -2.50861,-27.50004 q 0,-1.41997 -0.52066,-2.65061 -0.52065,-1.23064 -1.4673,-2.17728 -0.94664,-0.94665 -2.27195,-1.4673 -1.3253,-0.56799 -2.88726,-0.56799 l -10.12911,0 0,13.72636 9.98711,0 q 1.6093,0 2.9346,-0.47333 1.37263,-0.52065 2.31928,-1.41996 0.94664,-0.94665 1.4673,-2.17729 0.56799,-1.27797 0.56799,-2.7926 z" />
      <path
         id="path16322"
         style="font-style:normal;font-variant:normal;font-weight:normal;font-stretch:normal;font-size:94.66452789px;line-height:1.25;font-family:COCOGOOSE;-inkscape-font-specification:COCOGOOSE;fill:#ffffff;fill-opacity:1"
         d="m 520.49465,465.33379 q 0,3.50259 0.94664,5.96387 0.99398,2.41394 2.55594,3.97591 1.6093,1.51463 3.69192,2.22461 2.12995,0.70999 4.4019,0.70999 2.36661,0 4.44923,-0.80465 2.12996,-0.85198 3.69192,-2.46128 1.6093,-1.65663 2.50861,-4.07057 0.94665,-2.41395 0.94665,-5.53788 l 0,-40.13776 q 0,-0.85198 0.56798,-1.4673 0.61532,-0.61532 1.6093,-0.61532 l 13.82102,0 q 1.08864,0 1.70396,0.66265 0.61532,0.61532 0.61532,1.41997 l 0,39.9011 q 0,8.28315 -2.46128,13.91569 -2.41394,5.63254 -6.53185,9.08779 -4.1179,3.40792 -9.56112,4.92256 -5.39587,1.4673 -11.35974,1.4673 -5.96386,0 -11.40707,-1.51464 -5.44321,-1.56196 -9.56112,-5.01722 -4.11791,-3.50258 -6.57919,-9.08779 -2.41394,-5.63254 -2.41394,-13.77369 l 0,-39.9011 q 0,-0.80465 0.52065,-1.41997 0.56799,-0.66265 1.37264,-0.66265 l 14.19968,0 q 0.70998,0 1.4673,0.61532 0.80465,0.56799 0.80465,1.4673 l 0,40.13776 z" />
      <path
         id="path16324"
         style="font-style:normal;font-variant:normal;font-weight:normal;font-stretch:normal;font-size:94.66452789px;line-height:1.25;font-family:COCOGOOSE;-inkscape-font-specification:COCOGOOSE;fill:#ffffff;fill-opacity:1"
         d="m 620.11871,442.94563 q -2.41394,-1.70396 -5.15921,-2.65061 -2.74527,-0.94664 -5.8692,-0.94664 -3.92858,0 -7.19451,1.51463 -3.26592,1.4673 -5.63254,4.02324 -2.31928,2.55595 -3.64458,6.0112 -1.3253,3.40792 -1.3253,7.28917 0,3.88125 1.3253,7.28917 1.3253,3.40792 3.64458,5.96386 2.36662,2.50861 5.63254,3.97591 3.26593,1.4673 7.19451,1.4673 1.65663,0 3.26592,-0.23666 1.65663,-0.23666 3.50259,-0.61532 l 0,-12.40105 q 0,-0.89931 0.52066,-1.4673 0.52065,-0.61532 1.56196,-0.61532 l 12.87438,0 q 0.70998,0 1.51463,0.56799 0.80465,0.56799 0.80465,1.51463 l 0,22.90882 q 0,1.27797 -1.37264,2.08262 -2.22462,1.51463 -4.92255,2.60327 -2.69794,1.08864 -5.63254,1.79863 -2.9346,0.70998 -5.96387,1.04131 -2.98193,0.37865 -5.82187,0.37865 -5.01722,0 -9.65578,-1.27797 -4.59123,-1.27797 -8.61447,-3.64458 -4.02324,-2.36661 -7.3365,-5.63254 -3.26593,-3.31326 -5.63254,-7.28917 -2.36662,-4.02324 -3.64459,-8.61447 -1.27797,-4.63856 -1.27797,-9.65578 0,-5.01722 1.27797,-9.60845 1.27797,-4.63856 3.64459,-8.66181 2.36661,-4.07057 5.63254,-7.38383 3.31326,-3.31326 7.3365,-5.63254 4.02324,-2.36661 8.61447,-3.64458 4.63856,-1.32531 9.65578,-1.32531 5.67987,0 10.69709,1.6093 5.06456,1.56196 9.51379,4.5439 0.80465,0.47332 1.23064,1.27797 0.42599,0.75731 -0.18933,1.75129 l -7.66783,11.07575 q -0.61532,0.75732 -1.23064,1.04131 -0.61532,0.23666 -1.65663,-0.42599 z" />
    </g>
    <g
       id="text31780-4-7"
       style="font-style:normal;font-weight:normal;font-size:56.7987175px;line-height:0%;font-family:sans-serif;letter-spacing:0px;word-spacing:0px;opacity:1;fill:#000000;fill-opacity:1;stroke:none;stroke-width:1px;stroke-linecap:butt;stroke-linejoin:miter;stroke-opacity:1">
      <path
         id="path16305"
         style="font-style:normal;font-variant:normal;font-weight:normal;font-stretch:normal;font-size:130.16372681px;line-height:1.25;font-family:COCOGOOSE;-inkscape-font-specification:COCOGOOSE;fill:#ffffff"
         d="m 297.31435,577.17058 q 1.10639,0.91114 2.79852,2.47311 1.75721,1.49688 3.97,2.99376 3.31917,2.21278 6.57326,3.44934 3.2541,1.23656 6.8336,1.23656 3.31917,0 5.53196,-0.7159 2.27786,-0.78099 3.5795,-2.01754 1.30164,-1.23656 1.82229,-2.8636 0.58574,-1.62705 0.58574,-3.44934 0,-2.01754 -1.56197,-3.57951 -1.49688,-1.62704 -3.70966,-2.8636 -2.21279,-1.23655 -4.62081,-2.08262 -2.40803,-0.91114 -4.16524,-1.49688 -7.80983,-2.73344 -13.66719,-5.85737 -5.85737,-3.18901 -9.76228,-7.02884 -3.90492,-3.90491 -5.85737,-8.52572 -1.95246,-4.6859 -1.95246,-10.4131 0,-6.05261 2.40803,-10.99884 2.47311,-4.94622 6.96376,-8.46064 4.55573,-3.51442 10.93375,-5.40179 6.37803,-1.95246 14.25293,-1.95246 5.92245,0 11.32425,1.36672 5.46687,1.30164 10.7385,4.23032 2.21279,1.30164 4.16524,2.73344 2.01754,1.36672 3.51442,2.66836 1.49689,1.30163 2.34295,2.47311 0.91115,1.17147 0.91115,2.01753 0,0.84607 -0.45558,1.56197 -0.39049,0.7159 -1.23655,1.62705 l -9.95753,10.60834 q -1.10639,1.10639 -2.21278,1.10639 -0.91115,0 -1.69213,-0.52065 -0.7159,-0.52066 -1.62705,-1.30164 l -0.58573,-0.52066 q -1.30164,-1.10639 -2.92869,-2.27786 -1.56196,-1.17147 -3.38425,-2.08262 -1.8223,-0.97623 -3.83983,-1.56197 -2.01754,-0.65081 -4.10016,-0.65081 -2.1477,0 -4.03508,0.39049 -1.88737,0.32541 -3.31917,1.10639 -1.4318,0.78098 -2.27787,2.08262 -0.84606,1.23655 -0.84606,3.05885 0,1.82229 0.91115,3.18901 0.91114,1.30163 2.73343,2.47311 1.8223,1.10639 4.49065,2.1477 2.73344,0.97623 6.31294,2.1477 6.89868,2.27787 12.69097,4.81606 5.85736,2.47311 10.08769,5.92245 4.23032,3.38426 6.57326,8.13523 2.40803,4.75098 2.40803,11.51949 0,7.15901 -2.92868,13.01637 -2.92869,5.79229 -8.07015,9.89245 -5.07639,4.10015 -11.97507,6.37802 -6.89867,2.21278 -14.83866,2.21278 -7.48441,0 -14.7085,-2.66835 -7.22409,-2.66836 -13.47195,-7.15901 -2.60327,-1.88737 -4.42556,-3.70966 -1.75721,-1.8223 -2.79852,-2.92869 l -0.19525,-0.19524 q -0.0651,-0.13017 -0.13016,-0.13017 -0.0651,-0.0651 -0.13017,-0.13016 -0.0651,-0.13017 -0.13016,-0.13017 -0.0651,-0.0651 -0.13016,-0.13016 -1.49689,-1.62705 -1.49689,-2.60327 0,-1.1064 1.49689,-2.47311 l 11.25916,-10.73851 q 1.36672,-0.97623 2.21278,-0.97623 0.58574,0 1.23656,0.39049 0.65082,0.39049 1.56196,1.17148 z" />
      <path
         id="path16307"
         style="font-style:normal;font-variant:normal;font-weight:normal;font-stretch:normal;font-size:130.16372681px;line-height:1.25;font-family:COCOGOOSE;-inkscape-font-specification:COCOGOOSE;fill:#ffffff"
         d="m 391.19494,560.05404 q 0,5.4018 1.82229,10.08769 1.82229,4.6859 5.07639,8.20032 3.31917,3.44934 7.80982,5.46688 4.49065,1.95245 9.89244,1.95245 5.4018,0 9.89245,-1.95245 4.55573,-2.01754 7.80982,-5.46688 3.31917,-3.51442 5.14147,-8.20032 1.82229,-4.68589 1.82229,-10.08769 0,-5.33671 -1.82229,-10.0226 -1.8223,-4.75098 -5.14147,-8.2654 -3.25409,-3.51442 -7.80982,-5.53196 -4.49065,-2.01753 -9.89245,-2.01753 -5.40179,0 -9.89244,2.01753 -4.49065,2.01754 -7.80982,5.53196 -3.2541,3.51442 -5.07639,8.2654 -1.82229,4.68589 -1.82229,10.0226 z m -25.1216,0.0651 q 0,-6.89868 1.75721,-13.21162 1.75721,-6.37802 5.0113,-11.90998 3.2541,-5.59704 7.74474,-10.15277 4.55574,-4.55573 10.08769,-7.74474 5.53196,-3.2541 11.8449,-5.01131 6.37803,-1.82229 13.2767,-1.82229 6.8336,0 13.21162,1.82229 6.37802,1.75721 11.90998,5.01131 5.53196,3.18901 10.08769,7.74474 4.55573,4.55573 7.74474,10.15277 3.2541,5.53196 5.01131,11.90998 1.82229,6.31294 1.82229,13.21162 0,6.89867 -1.82229,13.2767 -1.75721,6.31294 -5.01131,11.8449 -3.18901,5.46687 -7.74474,10.0226 -4.55573,4.49065 -10.08769,7.74474 -5.53196,3.2541 -11.90998,5.01131 -6.37802,1.75721 -13.21162,1.75721 -6.89867,0 -13.2767,-1.75721 -6.31294,-1.75721 -11.8449,-5.01131 -5.53195,-3.25409 -10.08769,-7.74474 -4.49064,-4.55573 -7.74474,-10.0226 -3.25409,-5.53196 -5.0113,-11.8449 -1.75721,-6.37803 -1.75721,-13.2767 z" />
      <path
         id="path16309"
         style="font-style:normal;font-variant:normal;font-weight:normal;font-stretch:normal;font-size:130.16372681px;line-height:1.25;font-family:COCOGOOSE;-inkscape-font-specification:COCOGOOSE;fill:#ffffff"
         d="m 493.70701,514.30149 q 0,-2.40802 2.53819,-2.60327 l 19.19915,0 q 3.51443,0 3.51443,3.38426 l 0,89.16215 q 0,6.4431 -2.60328,12.04014 -2.53819,5.66213 -6.89868,9.82737 -4.36048,4.23032 -10.15277,6.63835 -5.7272,2.40803 -12.10522,2.40803 -3.77475,0 -7.41934,-0.84607 -3.64458,-0.84606 -6.96376,-2.53819 -3.25409,-1.62705 -6.05261,-4.10016 -2.8636,-2.40803 -5.0113,-5.59704 -0.19525,-0.0651 -0.19525,-1.04131 0,-1.69213 1.04131,-2.47311 l 11.32425,-10.60834 q 0.52065,-0.45558 1.10639,-0.7159 0.58573,-0.32541 1.10639,-0.32541 0.97623,0 1.82229,0.7159 0.91115,0.7159 1.95246,1.56196 1.10639,0.91115 2.53819,1.62705 1.4318,0.7159 3.44934,0.7159 1.49688,0 2.92868,-0.58574 1.4318,-0.58573 2.47311,-1.56196 1.10639,-0.97623 1.75721,-2.27787 0.65082,-1.36672 0.65082,-2.8636 l 0,-89.94314 z" />
      <path
         id="path16311"
         style="font-style:normal;font-variant:normal;font-weight:normal;font-stretch:normal;font-size:130.16372681px;line-height:1.25;font-family:COCOGOOSE;-inkscape-font-specification:COCOGOOSE;fill:#ffffff"
         d="m 567.79254,514.23641 q 0.0651,-0.39049 0.39049,-0.84606 0.3905,-0.45557 0.91115,-0.84607 0.52066,-0.39049 1.10639,-0.58573 0.58574,-0.26033 1.10639,-0.26033 l 16.66096,0 q 1.10639,0 1.88738,0.7159 0.78098,0.65082 1.17147,1.17147 l 1.62705,3.70967 34.16797,88.12084 q 0.52066,1.30164 -0.19524,2.14771 -0.7159,0.78098 -2.47311,0.78098 l -18.6785,0 q -1.49688,0 -2.34294,-0.52066 -0.78099,-0.58573 -1.23656,-1.88737 -1.30164,-3.31918 -2.53819,-6.57327 -1.23656,-3.31917 -2.47311,-6.63835 l -34.55847,0 q -1.23656,3.31918 -2.5382,6.63835 -1.23655,3.25409 -2.47311,6.57327 -0.84606,2.40803 -3.31917,2.40803 l -19.19915,0 q -1.23656,0 -2.08262,-0.65082 -0.78098,-0.65082 -0.26033,-1.95246 l 35.33945,-91.5051 z m 11.8449,27.85504 q -1.23655,3.31918 -2.53819,7.15901 -1.23656,3.83983 -2.47311,7.74474 -1.23656,3.90491 -2.53819,7.74474 -1.23656,3.77475 -2.47311,7.09392 l 19.98013,0 -9.95753,-29.74241 z" />
    </g>
  </g>
</svg>
