<?xml version="1.0" encoding="UTF-8" standalone="no"?>
<svg
   xmlns:dc="http://purl.org/dc/elements/1.1/"
   xmlns:cc="http://creativecommons.org/ns#"
   xmlns:rdf="http://www.w3.org/1999/02/22-rdf-syntax-ns#"
   xmlns:svg="http://www.w3.org/2000/svg"
   xmlns="http://www.w3.org/2000/svg"
   version="1.1"
   id="svg29344"
   viewBox="0 0 676.39859 235.58313"
   height="66.486794mm"
   width="190.89471mm">
  <defs
     id="defs29346" />
  <metadata
     id="metadata29349">
    <rdf:RDF>
      <cc:Work
         rdf:about="">
        <dc:format>image/svg+xml</dc:format>
        <dc:type
           rdf:resource="http://purl.org/dc/dcmitype/StillImage" />
        <dc:title></dc:title>
      </cc:Work>
    </rdf:RDF>
  </metadata>
  <g
     transform="translate(-39.118881,-500.69876)"
     id="layer1">
    <g
       id="text29319"
       style="font-style:normal;font-weight:normal;font-size:41.39304733px;line-height:0%;font-family:sans-serif;letter-spacing:0px;word-spacing:0px;opacity:1;fill:#ffffff;fill-opacity:1;stroke:none;stroke-width:1px;stroke-linecap:butt;stroke-linejoin:miter;stroke-opacity:1">
      <path
         id="path29998"
         style="font-style:normal;font-variant:normal;font-weight:200;font-stretch:normal;font-size:68.98841095px;line-height:1.25;font-family:COCOGOOSE;-inkscape-font-specification:'COCOGOOSE Ultra-Light';fill:#ffffff;fill-opacity:1"
         d="m 81.391343,560.06575 q 0,-1.51774 1.517745,-1.51774 l 3.552903,0 q 0.620896,0 1.103815,0.41393 0.482919,0.37944 0.482919,1.10381 l 0,15.41891 q 0,0.41394 -0.172471,0.79337 -0.172471,0.34494 -0.586402,0.5864 l -0.275953,0.20697 q -3.242456,2.3456 -7.140301,3.62189 -3.897845,1.24179 -8.416586,1.24179 -3.656386,0 -7.036818,-0.93134 -3.345938,-0.93135 -6.277945,-2.65606 -2.897513,-1.72471 -5.312108,-4.10481 -2.3801,-2.41459 -4.10481,-5.3121 -1.690216,-2.93201 -2.62156,-6.27795 -0.931343,-3.38043 -0.931343,-7.03682 0,-3.62189 0.931343,-6.96783 0.931344,-3.34594 2.656054,-6.27794 1.72471,-2.93201 4.10481,-5.3466 2.414595,-2.4146 5.312108,-4.13931 2.932007,-1.72471 6.277945,-2.65605 3.380433,-0.96584 7.036818,-0.96584 4.242788,0 8.175127,1.31078 3.932339,1.27628 7.347266,3.69088 0.379436,0.27595 0.620895,0.65539 0.24146,0.34494 0.24146,0.72438 0,0.48292 -0.275954,0.82786 l -1.828193,3.03549 q -0.586401,0.82786 -1.207297,0.82786 -0.241459,0 -0.551907,-0.10348 -0.275954,-0.13798 -0.65539,-0.41393 -2.483583,-1.75921 -5.41559,-2.75954 -2.897514,-1.03483 -6.208957,-1.03483 -4.277282,0 -7.933668,1.62123 -3.621891,1.62123 -6.312439,4.34627 -2.656054,2.72504 -4.173799,6.27795 -1.517745,3.5529 -1.517745,7.41625 0,4.10481 1.552239,7.69221 1.552239,3.5529 4.208293,6.20896 2.656054,2.62156 6.174463,4.1393 3.552903,1.51775 7.554231,1.51775 2.518077,0 5.00166,-0.79337 2.518077,-0.82786 5.105142,-1.93168 l 0,-12.45241 z" />
      <path
         id="path30000"
         style="font-style:normal;font-variant:normal;font-weight:200;font-stretch:normal;font-size:68.98841095px;line-height:1.25;font-family:COCOGOOSE;-inkscape-font-specification:'COCOGOOSE Ultra-Light';fill:#ffffff;fill-opacity:1"
         d="m 97.695245,531.47006 q 0,-0.6209 0.379436,-1.06932 0.413931,-0.44843 1.138309,-0.44843 l 3.5874,0 q 0.62089,0 1.10381,0.41393 0.48292,0.41393 0.48292,1.10382 l 0,48.1884 q 0,1.51775 -1.58673,1.51775 l -3.5874,0 q -1.517745,0 -1.517745,-1.51775 l 0,-48.1884 z" />
      <path
         id="path30002"
         style="font-style:normal;font-variant:normal;font-weight:200;font-stretch:normal;font-size:68.98841095px;line-height:1.25;font-family:COCOGOOSE;-inkscape-font-specification:'COCOGOOSE Ultra-Light';fill:#ffffff;fill-opacity:1"
         d="m 115.48132,531.60804 q 0,-1.65573 1.58673,-1.65573 l 16.1088,0 q 3.69088,0 7.03682,0.89685 3.34593,0.89685 6.20895,2.55257 2.86302,1.65573 5.17413,4.00133 2.31112,2.34561 3.93234,5.20863 1.65572,2.82852 2.55257,6.13997 0.89685,3.27694 0.89685,6.86434 0,3.55291 -0.93134,6.82985 -0.89685,3.24246 -2.58707,6.10548 -1.65572,2.82852 -4.00132,5.17413 -2.34561,2.31111 -5.20863,3.96683 -2.86302,1.65573 -6.17446,2.58707 -3.31144,0.89685 -6.89884,0.89685 l -16.1088,0 q -0.62089,0 -1.10381,-0.27596 -0.48292,-0.31044 -0.48292,-1.1728 l 0,-48.11941 z m 17.52306,42.97978 q 4.20829,0 7.76119,-1.55224 3.55291,-1.55224 6.10548,-4.1738 2.58706,-2.65606 4.03582,-6.17447 1.44876,-3.5184 1.44876,-7.45074 0,-4.2083 -1.51775,-7.65772 -1.51774,-3.44942 -4.1393,-5.89851 -2.58707,-2.44909 -6.07098,-3.79436 -3.48392,-1.34527 -7.45075,-1.34527 l -11.07264,0 0,38.04711 10.90017,0 z" />
      <path
         id="path30004"
         style="font-style:normal;font-variant:normal;font-weight:200;font-stretch:normal;font-size:68.98841095px;line-height:1.25;font-family:COCOGOOSE;-inkscape-font-specification:'COCOGOOSE Ultra-Light';fill:#ffffff;fill-opacity:1"
         d="m 190.39842,531.47006 q 0,-0.6209 0.37944,-1.06932 0.41393,-0.44843 1.1383,-0.44843 l 3.5874,0 q 0.6209,0 1.10382,0.41393 0.48292,0.41393 0.48292,1.10382 l 0,48.1884 q 0,1.51775 -1.58674,1.51775 l -3.5874,0 q -1.51774,0 -1.51774,-1.51775 l 0,-48.1884 z" />
      <path
         id="path30006"
         style="font-style:normal;font-variant:normal;font-weight:200;font-stretch:normal;font-size:68.98841095px;line-height:1.25;font-family:COCOGOOSE;-inkscape-font-specification:'COCOGOOSE Ultra-Light';fill:#ffffff;fill-opacity:1"
         d="m 246.19711,581.17621 q -0.75888,0 -1.31078,-0.75887 l -30.11345,-40.35822 0,39.59934 q 0,1.51775 -1.58673,1.51775 l -3.48391,0 q -1.51775,0 -1.51775,-1.51775 l 0,-48.11941 q 0,-0.68989 0.41393,-1.13831 0.41393,-0.44843 1.10382,-0.44843 l 4.62222,0 q 0.89685,0 1.44876,0.75888 l 29.35457,39.01294 0,-38.49553 q 0.20696,-1.27629 1.51774,-1.27629 l 3.48392,0 q 0.62089,0 1.1383,0.41393 0.55191,0.41393 0.55191,1.10382 l 0,48.1884 q 0,1.51775 -1.69021,1.51775 l -3.93234,0 z" />
      <path
         id="path30008"
         style="font-style:normal;font-variant:normal;font-weight:200;font-stretch:normal;font-size:68.98841095px;line-height:1.25;font-family:COCOGOOSE;-inkscape-font-specification:'COCOGOOSE Ultra-Light';fill:#ffffff;fill-opacity:1"
         d="m 292.17897,541.12844 q -0.48292,-0.31045 -1.58673,-1.2073 -1.10382,-0.89685 -2.72504,-1.82819 -1.58674,-0.93135 -3.5874,-1.65573 -2.00067,-0.75887 -4.31178,-0.75887 -2.72504,0 -4.69121,0.65539 -1.96617,0.65539 -3.24245,1.75921 -1.27629,1.06932 -1.89719,2.44908 -0.5864,1.34528 -0.5864,2.72505 0,1.93167 1.27629,3.24245 1.27628,1.31078 3.38043,2.27662 2.10415,0.96584 4.7602,1.7592 2.69055,0.75888 5.45009,1.62123 2.79403,0.86236 5.45008,1.93168 2.69055,1.06932 4.79469,2.65605 2.10415,1.58673 3.38044,3.79436 1.27628,2.20763 1.27628,5.34661 0,3.62189 -1.51774,6.58839 -1.48325,2.93201 -4.10481,5.03615 -2.58707,2.06966 -6.10548,3.20796 -3.51841,1.13831 -7.55423,1.13831 -2.69055,0 -5.3466,-0.62089 -2.62156,-0.5864 -5.07065,-1.72471 -2.41459,-1.17281 -4.51874,-2.82853 -2.10415,-1.65572 -3.75987,-3.79436 -0.44842,-0.55191 -0.44842,-1.10382 0.0345,-0.5519 0.62089,-1.03482 l 2.72504,-2.27662 q 0.58641,-0.48292 1.13831,-0.41393 0.55191,0.0345 1.00034,0.5864 l 0.44842,0.44843 q 1.44876,1.62122 3.27695,2.82852 1.86269,1.1728 3.69088,1.96617 1.86269,0.75887 3.5529,1.13831 1.69022,0.37944 2.86302,0.37944 2.10415,0 4.31178,-0.55191 2.20763,-0.55191 4.03582,-1.69022 1.82819,-1.13831 3.001,-2.86302 1.1728,-1.7592 1.1728,-4.10481 0,-1.96617 -1.1728,-3.31144 -1.13831,-1.37977 -3.10448,-2.3801 -1.96617,-1.03483 -4.62223,-1.82819 -2.62156,-0.82786 -5.62255,-1.72471 -4.13931,-1.2073 -7.10581,-2.51808 -2.9665,-1.34527 -4.89818,-2.93201 -1.89718,-1.62123 -2.79403,-3.5874 -0.89685,-2.00066 -0.89685,-4.48424 0,-3.13897 1.2418,-5.72604 1.27628,-2.62156 3.58739,-4.51874 2.31112,-1.89718 5.55357,-2.93201 3.27695,-1.06932 7.31277,-1.06932 2.17314,0 4.51874,0.55191 2.34561,0.55191 4.55324,1.55224 2.24212,0.96584 4.1738,2.3456 1.96617,1.34528 3.38043,3.001 0.48292,0.51741 0.48292,1.10381 0.0345,0.55191 -0.51742,1.06932 l -2.44908,2.34561 q -0.55191,0.51741 -1.13831,0.48292 -0.55191,-0.0345 -1.03483,-0.51741 z" />
      <path
         id="path30010"
         style="font-style:normal;font-variant:normal;font-weight:200;font-stretch:normal;font-size:68.98841095px;line-height:1.25;font-family:COCOGOOSE;-inkscape-font-specification:'COCOGOOSE Ultra-Light';fill:#ffffff;fill-opacity:1"
         d="m 343.30046,529.95231 q 1.58673,0 1.58673,1.65573 l 0,3.41492 q 0,0.65539 -0.41393,1.13831 -0.37943,0.48292 -1.24179,0.48292 l -27.80233,0 0,14.17712 21.86933,0 q 0.62089,0 1.06932,0.37943 0.44842,0.34495 0.44842,1.2073 l 0,3.51841 q 0,0.6209 -0.37943,1.10381 -0.37944,0.48292 -1.13831,0.48292 l -21.86933,0 0,16.97115 27.94031,0 q 1.58673,0 1.58673,1.62123 l 0,3.5529 q 0,1.51775 -1.51774,1.51775 l -33.18343,0 q -1.51774,0 -1.51774,-1.44876 l 0,-48.1884 q 0,-1.58674 1.51774,-1.58674 l 33.04545,0 z" />
      <path
         id="path30012"
         style="font-style:normal;font-variant:normal;font-weight:200;font-stretch:normal;font-size:68.98841095px;line-height:1.25;font-family:COCOGOOSE;-inkscape-font-specification:'COCOGOOSE Ultra-Light';fill:#ffffff;fill-opacity:1"
         d="m 386.35462,529.95231 q 0.62089,0 1.10381,0.37944 0.51742,0.37944 0.5864,1.13831 l 0,3.48391 q 0,0.68989 -0.41393,1.2073 -0.41393,0.48292 -1.27628,0.48292 l -14.34959,0 0,42.94529 q 0,0.62089 -0.41393,1.10381 -0.41393,0.48292 -1.1728,0.48292 l -3.48392,0 q -0.6209,0 -1.10381,-0.44843 -0.48292,-0.44842 -0.48292,-1.1383 l 0,-42.94529 -14.41858,0 q -0.68988,0 -1.13831,-0.41393 -0.44842,-0.41393 -0.44842,-1.27629 l 0,-3.48391 q 0,-0.68989 0.44842,-1.10382 0.44843,-0.41393 1.13831,-0.41393 l 35.42555,0 z" />
      <path
         id="path30014"
         style="font-style:normal;font-variant:normal;font-weight:200;font-stretch:normal;font-size:68.98841095px;line-height:1.25;font-family:COCOGOOSE;-inkscape-font-specification:'COCOGOOSE Ultra-Light';fill:#ffffff;fill-opacity:1"
         d="m 397.71667,555.51252 q 0,2.72504 0.68988,5.24312 0.72438,2.48358 2.00067,4.69121 1.27628,2.17314 3.06998,3.96683 1.7937,1.7937 3.96683,3.06999 2.20763,1.27628 4.69122,2.00066 2.51807,0.68989 5.24312,0.68989 2.69054,0 5.20862,-0.68989 2.51808,-0.72438 4.69121,-2.00066 2.17314,-1.27629 3.96684,-3.06999 1.7937,-1.79369 3.06998,-3.96683 1.27629,-2.20763 1.96617,-4.69121 0.72438,-2.51808 0.72438,-5.24312 0,-4.07032 -1.55224,-7.62322 -1.55224,-3.5874 -4.20829,-6.24345 -2.65606,-2.65605 -6.24345,-4.20829 -3.55291,-1.55224 -7.62322,-1.55224 -2.72505,0 -5.24312,0.72438 -2.48359,0.68988 -4.69122,1.96616 -2.17313,1.27629 -3.96683,3.06999 -1.7937,1.7937 -3.06998,3.96683 -1.27629,2.17314 -2.00067,4.69121 -0.68988,2.51808 -0.68988,5.20863 z m 19.73068,-26.25009 q 3.6219,0 6.96783,0.93134 3.38044,0.93135 6.27795,2.65606 2.93201,1.72471 5.3466,4.1393 2.4146,2.3801 4.10481,5.3466 1.72471,2.93201 2.65606,6.31244 0.96583,3.38043 0.96583,7.03682 0,3.62189 -0.93134,7.00232 -0.93134,3.34594 -2.65605,6.27795 -1.72471,2.89751 -4.13931,5.31211 -2.3801,2.3801 -5.31211,4.10481 -2.932,1.69021 -6.31244,2.62156 -3.38043,0.93134 -7.03681,0.93134 -3.65639,0 -7.03682,-0.93134 -3.34594,-0.93135 -6.27795,-2.65606 -2.89751,-1.72471 -5.31211,-4.10481 -2.3801,-2.41459 -4.10481,-5.3121 -1.69021,-2.93201 -2.62156,-6.27795 -0.93134,-3.38043 -0.93134,-7.03682 0,-3.62189 0.93134,-6.96783 0.93135,-3.38043 2.65606,-6.31244 1.72471,-2.932 4.10481,-5.3466 2.41459,-2.41459 5.3466,-4.10481 2.93201,-1.72471 6.27795,-2.65605 3.38043,-0.96584 7.03681,-0.96584 z" />
      <path
         id="path30016"
         style="font-style:normal;font-variant:normal;font-weight:200;font-stretch:normal;font-size:68.98841095px;line-height:1.25;font-family:COCOGOOSE;-inkscape-font-specification:'COCOGOOSE Ultra-Light';fill:#ffffff;fill-opacity:1"
         d="m 482.84029,541.12844 q -0.48292,-0.31045 -1.58674,-1.2073 -1.10381,-0.89685 -2.72504,-1.82819 -1.58673,-0.93135 -3.5874,-1.65573 -2.00066,-0.75887 -4.31177,-0.75887 -2.72504,0 -4.69121,0.65539 -1.96617,0.65539 -3.24246,1.75921 -1.27628,1.06932 -1.89718,2.44908 -0.5864,1.34528 -0.5864,2.72505 0,1.93167 1.27628,3.24245 1.27629,1.31078 3.38044,2.27662 2.10414,0.96584 4.7602,1.7592 2.69054,0.75888 5.45008,1.62123 2.79403,0.86236 5.45009,1.93168 2.69054,1.06932 4.79469,2.65605 2.10415,1.58673 3.38043,3.79436 1.27629,2.20763 1.27629,5.34661 0,3.62189 -1.51775,6.58839 -1.48325,2.93201 -4.10481,5.03615 -2.58706,2.06966 -6.10547,3.20796 -3.51841,1.13831 -7.55423,1.13831 -2.69055,0 -5.3466,-0.62089 -2.62156,-0.5864 -5.07065,-1.72471 -2.4146,-1.17281 -4.51874,-2.82853 -2.10415,-1.65572 -3.75987,-3.79436 -0.44843,-0.55191 -0.44843,-1.10382 0.0345,-0.5519 0.6209,-1.03482 l 2.72504,-2.27662 q 0.5864,-0.48292 1.13831,-0.41393 0.55191,0.0345 1.00033,0.5864 l 0.44843,0.44843 q 1.44875,1.62122 3.27695,2.82852 1.86268,1.1728 3.69088,1.96617 1.86268,0.75887 3.5529,1.13831 1.69022,0.37944 2.86302,0.37944 2.10414,0 4.31177,-0.55191 2.20763,-0.55191 4.03583,-1.69022 1.82819,-1.13831 3.00099,-2.86302 1.1728,-1.7592 1.1728,-4.10481 0,-1.96617 -1.1728,-3.31144 -1.13831,-1.37977 -3.10448,-2.3801 -1.96617,-1.03483 -4.62222,-1.82819 -2.62156,-0.82786 -5.62256,-1.72471 -4.1393,-1.2073 -7.1058,-2.51808 -2.9665,-1.34527 -4.89818,-2.93201 -1.89718,-1.62123 -2.79403,-3.5874 -0.89685,-2.00066 -0.89685,-4.48424 0,-3.13897 1.24179,-5.72604 1.27629,-2.62156 3.5874,-4.51874 2.31111,-1.89718 5.55357,-2.93201 3.27695,-1.06932 7.31277,-1.06932 2.17313,0 4.51874,0.55191 2.3456,0.55191 4.55323,1.55224 2.24213,0.96584 4.1738,2.3456 1.96617,1.34528 3.38044,3.001 0.48291,0.51741 0.48291,1.10381 0.0345,0.55191 -0.51741,1.06932 l -2.44909,2.34561 q -0.5519,0.51741 -1.13831,0.48292 -0.5519,-0.0345 -1.03482,-0.51741 z" />
    </g>
    <g
       id="text29323"
       style="font-style:normal;font-weight:normal;font-size:56.79871368px;line-height:0%;font-family:sans-serif;letter-spacing:0px;word-spacing:0px;opacity:1;fill:#000000;fill-opacity:1;stroke:none;stroke-width:1px;stroke-linecap:butt;stroke-linejoin:miter;stroke-opacity:1">
      <path
         id="path29989"
         style="font-style:normal;font-variant:normal;font-weight:normal;font-stretch:normal;font-size:130.16372681px;line-height:1.25;font-family:COCOGOOSE;-inkscape-font-specification:COCOGOOSE;fill:#ffffff"
         d="m 197.56331,672.2924 q 1.1064,0.91115 2.79852,2.47311 1.75721,1.49688 3.97,2.99377 3.31917,2.21278 6.57327,3.44934 3.25409,1.23655 6.83359,1.23655 3.31918,0 5.53196,-0.7159 2.27787,-0.78098 3.5795,-2.01754 1.30164,-1.23655 1.82229,-2.8636 0.58574,-1.62704 0.58574,-3.44934 0,-2.01753 -1.56196,-3.5795 -1.49689,-1.62705 -3.70967,-2.8636 -2.21278,-1.23656 -4.62081,-2.08262 -2.40803,-0.91115 -4.16524,-1.49688 -7.80982,-2.73344 -13.66719,-5.85737 -5.85737,-3.18901 -9.76228,-7.02884 -3.90491,-3.90491 -5.85737,-8.52573 -1.95246,-4.68589 -1.95246,-10.4131 0,-6.05261 2.40803,-10.99883 2.47311,-4.94622 6.96376,-8.46064 4.55573,-3.51442 10.93376,-5.4018 6.37802,-1.95245 14.25292,-1.95245 5.92245,0 11.32425,1.36672 5.46687,1.30163 10.73851,4.23032 2.21278,1.30163 4.16523,2.73344 2.01754,1.36671 3.51443,2.66835 1.49688,1.30164 2.34294,2.47311 0.91115,1.17148 0.91115,2.01754 0,0.84606 -0.45557,1.56197 -0.3905,0.7159 -1.23656,1.62704 l -9.95752,10.60835 q -1.1064,1.10639 -2.21279,1.10639 -0.91114,0 -1.69213,-0.52066 -0.7159,-0.52065 -1.62704,-1.30163 l -0.58574,-0.52066 q -1.30164,-1.10639 -2.92868,-2.27787 -1.56197,-1.17147 -3.38426,-2.08261 -1.82229,-0.97623 -3.83983,-1.56197 -2.01754,-0.65082 -4.10016,-0.65082 -2.1477,0 -4.03507,0.39049 -1.88738,0.32541 -3.31918,1.10639 -1.4318,0.78099 -2.27786,2.08262 -0.84607,1.23656 -0.84607,3.05885 0,1.82229 0.91115,3.18901 0.91114,1.30164 2.73344,2.47311 1.82229,1.1064 4.49064,2.14771 2.73344,0.97622 6.31295,2.1477 6.89867,2.27786 12.69096,4.81605 5.85737,2.47312 10.08769,5.92245 4.23032,3.38426 6.57327,8.13524 2.40802,4.75097 2.40802,11.51949 0,7.159 -2.92868,13.01637 -2.92868,5.79229 -8.07015,9.89244 -5.07639,4.10016 -11.97506,6.37803 -6.89868,2.21278 -14.83867,2.21278 -7.48441,0 -14.7085,-2.66836 -7.22409,-2.66835 -13.47194,-7.159 -2.60328,-1.88738 -4.42557,-3.70967 -1.75721,-1.82229 -2.79852,-2.92868 l -0.19525,-0.19525 q -0.0651,-0.13016 -0.13016,-0.13016 -0.0651,-0.0651 -0.13016,-0.13017 -0.0651,-0.13016 -0.13017,-0.13016 -0.0651,-0.0651 -0.13016,-0.13016 -1.49688,-1.62705 -1.49688,-2.60328 0,-1.10639 1.49688,-2.47311 l 11.25916,-10.73851 q 1.36672,-0.97622 2.21278,-0.97622 0.58574,0 1.23656,0.39049 0.65082,0.39049 1.56196,1.17147 z" />
      <path
         id="path29991"
         style="font-style:normal;font-variant:normal;font-weight:normal;font-stretch:normal;font-size:130.16372681px;line-height:1.25;font-family:COCOGOOSE;-inkscape-font-specification:COCOGOOSE;fill:#ffffff"
         d="m 265.6064,662.20471 q 0,-5.98753 1.49688,-11.51949 1.56197,-5.53196 4.29541,-10.21785 2.79852,-4.75098 6.63835,-8.59081 3.90491,-3.90491 8.65588,-6.63835 4.75098,-2.73343 10.21786,-4.23032 5.53196,-1.49688 11.51949,-1.49688 8.85113,0 16.59587,3.31918 7.80983,3.25409 13.53703,9.04637 5.79229,5.72721 9.11146,13.53703 3.38426,7.74474 3.38426,16.79112 0,5.98753 -1.56197,11.51949 -1.49688,5.46688 -4.2954,10.21785 -2.73344,4.75098 -6.63835,8.65589 -3.83983,3.83983 -8.59081,6.63835 -4.75097,2.73344 -10.21785,4.23032 -5.40179,1.49689 -11.32424,1.49689 -5.98753,0 -11.51949,-1.49689 -5.46688,-1.49688 -10.21786,-4.23032 -4.75097,-2.79852 -8.65588,-6.63835 -3.83983,-3.90491 -6.63835,-8.65589 -2.73344,-4.75097 -4.29541,-10.21785 -1.49688,-5.53196 -1.49688,-11.51949 z m 23.75488,0 q 0,4.29541 1.30164,8.07015 1.36672,3.70967 3.77475,6.44311 2.47311,2.73344 5.92245,4.36048 3.51442,1.56197 7.8749,1.56197 4.23032,0 7.61458,-1.56197 3.44934,-1.62704 5.79229,-4.36048 2.40802,-2.73344 3.64458,-6.44311 1.30164,-3.77474 1.30164,-8.07015 0,-4.16524 -1.30164,-7.93998 -1.23656,-3.77475 -3.64458,-6.63836 -2.34295,-2.8636 -5.79229,-4.49064 -3.38426,-1.69213 -7.61458,-1.69213 -4.36048,0 -7.8749,1.69213 -3.44934,1.62704 -5.92245,4.49064 -2.40803,2.86361 -3.77475,6.63836 -1.30164,3.77474 -1.30164,7.93998 z" />
      <path
         id="path29993"
         style="font-style:normal;font-variant:normal;font-weight:normal;font-stretch:normal;font-size:130.16372681px;line-height:1.25;font-family:COCOGOOSE;-inkscape-font-specification:COCOGOOSE;fill:#ffffff"
         d="m 364.31321,625.88903 q 0,-2.53819 1.62705,-3.77475 1.62704,-1.30163 3.5795,-1.30163 l 14.77358,0 q 2.34295,0 3.64459,1.49688 1.30164,1.49688 1.30164,3.5795 l 0,74.71398 q 0,6.05262 -2.5382,11.38933 -2.53819,5.33671 -6.83359,9.3067 -4.29541,3.97 -9.89245,6.24786 -5.53195,2.27787 -11.58457,2.27787 l -1.56196,0 q -2.34295,-0.13017 -3.57951,-1.49688 -1.23655,-1.30164 -1.23655,-3.18902 l 0,-9.3067 q 0,-2.34295 1.49688,-3.77475 1.4318,-1.4318 3.51442,-1.4318 l 1.36672,0 q 1.30164,0 2.40803,-1.10639 1.10639,-1.04131 1.88737,-2.60328 0.78099,-1.56196 1.17148,-3.31917 0.45557,-1.69213 0.45557,-2.99377 l 0,-74.71398 z m -0.32541,-32.93142 q 0,-2.73344 1.17148,-3.83983 1.17147,-1.17147 3.64458,-1.17147 l 15.09899,0 q 2.27787,0 3.64459,1.17147 1.4318,1.10639 1.4318,3.83983 l 0,12.69096 q 0,0.78099 -0.39049,1.69213 -0.32541,0.91115 -0.97623,1.75721 -0.65082,0.84607 -1.62705,1.4318 -0.91114,0.52066 -2.08262,0.52066 l -15.09899,0 q -4.81606,0 -4.81606,-5.4018 l 0,-12.69096 z" />
      <path
         id="path29995"
         style="font-style:normal;font-variant:normal;font-weight:normal;font-stretch:normal;font-size:130.16372681px;line-height:1.25;font-family:COCOGOOSE;-inkscape-font-specification:COCOGOOSE;fill:#ffffff"
         d="m 489.98019,698.65056 q 0,1.10639 -0.39049,2.1477 -0.3905,0.97623 -1.30164,1.56196 -0.7159,0.7159 -1.69213,0.91115 -0.97623,0.19524 -1.69213,0.19524 l -12.82113,0 q -1.36671,0 -2.21278,-0.32541 -0.84606,-0.39049 -1.36672,-1.04131 -0.52065,-0.65081 -0.91114,-1.56196 -0.32541,-0.97623 -0.7159,-2.08262 l -0.84607,-2.92868 q -1.75721,1.75721 -4.03507,3.44934 -2.21279,1.69212 -4.94623,3.05884 -2.66835,1.30164 -5.79228,2.08262 -3.05885,0.84607 -6.37802,0.84607 -5.92245,0 -11.38933,-1.49689 -5.4018,-1.49688 -10.15277,-4.23032 -4.6859,-2.79852 -8.52573,-6.63835 -3.83983,-3.90491 -6.63835,-8.65589 -2.73343,-4.75097 -4.23032,-10.21785 -1.49688,-5.53196 -1.49688,-11.51949 0,-9.04638 3.31918,-16.79112 3.31917,-7.80982 9.04637,-13.53703 5.72721,-5.79228 13.47195,-9.04637 7.74474,-3.31918 16.59588,-3.31918 4.03507,0 7.48441,0.91115 3.51442,0.91114 6.37802,2.47311 2.92869,1.56196 5.27163,3.77474 2.34295,2.14771 4.10016,4.6859 l 1.88737,-5.92245 q 0.65082,-1.62705 1.04131,-2.60327 0.45558,-1.04131 0.91115,-1.49689 0.52066,-0.52065 1.23656,-0.65082 0.7159,-0.19524 2.01753,-0.19524 l 9.6972,0 q 0.7159,0 1.69213,0.19524 0.97623,0.19525 1.69213,0.91115 0.91114,0.7159 1.30164,1.62705 0.39049,0.91114 0.39049,2.08262 l 0,73.34726 z m -64.10564,-36.44585 q 0,4.29541 1.30164,8.07015 1.36672,3.70967 3.83983,6.44311 2.47311,2.73344 5.92245,4.36048 3.51442,1.56197 7.74474,1.56197 4.36048,0 8.07015,-1.56197 3.77475,-1.62704 6.50819,-4.36048 2.79852,-2.73344 4.36048,-6.44311 1.56197,-3.77474 1.56197,-8.07015 0,-4.16524 -1.56197,-7.93998 -1.56196,-3.77475 -4.36048,-6.63836 -2.73344,-2.8636 -6.50819,-4.49064 -3.70967,-1.69213 -8.07015,-1.69213 -4.23032,0 -7.74474,1.69213 -3.44934,1.62704 -5.92245,4.49064 -2.47311,2.86361 -3.83983,6.63836 -1.30164,3.77474 -1.30164,7.93998 z" />
    </g>
    <path
       style="color:#000000;font-style:normal;font-weight:normal;font-size:medium;line-height:0%;font-family:sans-serif;letter-spacing:0px;word-spacing:0px;clip-rule:nonzero;display:inline;overflow:visible;visibility:visible;opacity:1;isolation:auto;mix-blend-mode:normal;color-interpolation:sRGB;color-interpolation-filters:linearRGB;solid-color:#000000;solid-opacity:1;fill:#ffffff;fill-opacity:0.99607843;fill-rule:nonzero;stroke:none;stroke-width:3.65570831;stroke-linecap:round;stroke-linejoin:round;stroke-miterlimit:4;stroke-dasharray:none;stroke-dashoffset:0;stroke-opacity:0.99607843;marker:none;color-rendering:auto;image-rendering:auto;shape-rendering:auto;text-rendering:auto;enable-background:accumulate"
       d="m 570.27486,507.16077 c -1.95307,0.0531 -3.92385,0.58146 -5.74192,1.63099 -5.81705,3.35834 -7.7967,10.74472 -4.438,16.56212 l 15.45166,26.76473 c -6.36449,5.3348 -11.63445,11.91933 -15.46087,19.38047 l -17.15279,-4.59638 c -6.80386,-1.82338 -13.75087,2.18587 -15.57426,8.99008 -1.82303,6.80421 2.18764,13.75087 8.9915,15.57425 l 16.98343,4.54996 c -0.085,1.35603 -0.13465,2.72339 -0.13465,4.10245 l 0,19.39358 -20.17453,0 c -7.04445,0 -12.71622,5.67142 -12.71622,12.71551 0,7.04409 5.67177,12.71445 12.71622,12.71445 l 20.17453,0 0,19.47118 c 0,0.22323 0,0.45 0,0.67535 l -16.85516,4.5156 c -6.80421,1.82338 -10.81488,8.77003 -8.99149,15.57425 1.82303,6.80421 8.77004,10.81311 15.57425,8.99008 l 15.68409,-4.20166 c 9.74091,21.85866 31.60984,37.03288 57.16595,37.03288 21.82429,0 40.95035,-11.07178 52.14012,-27.91666 l -21.26835,-21.26834 c -8.4848,5.45456 -18.18177,8.48445 -29.09055,8.48445 -30.30201,0 -54.54284,-24.24119 -54.54284,-54.54319 0,-30.30201 24.24083,-54.54284 54.54284,-54.54284 30.30165,0 54.54283,24.24083 54.54283,54.54284 0,10.90878 -3.02952,20.6061 -8.48409,29.09055 l 29.09055,29.08878 c 1.24122,0.93118 2.16035,2.18409 2.76591,3.66945 3.4898,-1.46906 6.28724,-4.46918 7.3474,-8.42634 1.82338,-6.80422 -2.18587,-13.75087 -8.99008,-15.57425 l -15.48036,-4.14815 c 0,-0.34725 0,-0.69414 0,-1.0428 l 0,-19.47118 18.39969,0 c 7.04409,0 12.71445,-5.67036 12.71445,-12.71445 0,-7.04409 -5.67036,-12.71551 -12.71445,-12.71551 l -18.39969,0 0,-19.39358 c 0,-1.50201 -0.0567,-2.99091 -0.15945,-4.46528 l 15.62776,-4.18713 c 6.80386,-1.82338 10.81347,-8.77004 8.99008,-15.57425 -1.82303,-6.80421 -8.76862,-10.81346 -15.57248,-8.99008 l -15.94028,4.2704 c -4.0546,-7.79209 -9.69484,-14.60941 -16.50578,-20.03492 l 14.88685,-25.7843 c 3.3587,-5.8174 1.3787,-13.20378 -4.4387,-16.56212 -5.81741,-3.3587 -13.20308,-1.37906 -16.56178,4.43834 l -15.44775,26.75587 c -5.53925,-1.59555 -11.39776,-2.45339 -17.4639,-2.45339 -6.62138,0 -12.99295,1.02473 -18.97405,2.91296 l -15.71386,-27.21685 c -2.30918,-3.99933 -6.52217,-6.18378 -10.8202,-6.06792 z m 47.29111,94.29449 c -16.96925,0 -30.30166,13.33276 -30.30166,30.30166 0,16.96925 13.33241,30.30165 30.30166,30.30165 16.9689,0 30.30165,-13.3324 30.30165,-30.30165 0,-16.9689 -13.33275,-30.30166 -30.30165,-30.30166 z"
       id="path29327" />
  </g>
</svg>
