<?xml version="1.0" encoding="UTF-8" standalone="no"?>
<svg
   xmlns:dc="http://purl.org/dc/elements/1.1/"
   xmlns:cc="http://creativecommons.org/ns#"
   xmlns:rdf="http://www.w3.org/1999/02/22-rdf-syntax-ns#"
   xmlns:svg="http://www.w3.org/2000/svg"
   xmlns="http://www.w3.org/2000/svg"
   version="1.1"
   id="svg27711"
   viewBox="0 0 669.03711 233.31874"
   height="65.847733mm"
   width="188.81714mm">
  <defs
     id="defs27713" />
  <metadata
     id="metadata27716">
    <rdf:RDF>
      <cc:Work
         rdf:about="">
        <dc:format>image/svg+xml</dc:format>
        <dc:type
           rdf:resource="http://purl.org/dc/dcmitype/StillImage" />
        <dc:title></dc:title>
      </cc:Work>
    </rdf:RDF>
  </metadata>
  <g
     transform="translate(-60.406136,-432.50491)"
     id="layer1">
    <g
       id="text19569"
       style="font-style:normal;font-weight:normal;font-size:41.39304733px;line-height:0%;font-family:sans-serif;letter-spacing:0px;word-spacing:0px;opacity:1;fill:#ffffff;fill-opacity:1;stroke:none;stroke-width:1px;stroke-linecap:butt;stroke-linejoin:miter;stroke-opacity:1">
      <path
         id="path28291"
         style="font-style:normal;font-variant:normal;font-weight:200;font-stretch:normal;font-size:68.98841095px;line-height:1.25;font-family:COCOGOOSE;-inkscape-font-specification:'COCOGOOSE Ultra-Light';fill:#ffffff;fill-opacity:1"
         d="m 318.53715,491.73177 q 0,-1.51774 1.51775,-1.51774 l 3.5529,0 q 0.6209,0 1.10382,0.41393 0.48291,0.37943 0.48291,1.10381 l 0,15.41891 q 0,0.41393 -0.17247,0.79337 -0.17247,0.34494 -0.5864,0.5864 l -0.27595,0.20696 q -3.24246,2.34561 -7.1403,3.6219 -3.89785,1.24179 -8.41659,1.24179 -3.65638,0 -7.03682,-0.93135 -3.34593,-0.93134 -6.27794,-2.65605 -2.89752,-1.72471 -5.31211,-4.10481 -2.3801,-2.4146 -4.10481,-5.31211 -1.69022,-2.93201 -2.62156,-6.27794 -0.93134,-3.38044 -0.93134,-7.03682 0,-3.62189 0.93134,-6.96783 0.93134,-3.34594 2.65605,-6.27795 1.72471,-2.932 4.10481,-5.3466 2.4146,-2.41459 5.31211,-4.1393 2.93201,-1.72471 6.27795,-2.65606 3.38043,-0.96584 7.03682,-0.96584 4.24278,0 8.17512,1.31078 3.93234,1.27629 7.34727,3.69088 0.37943,0.27596 0.62089,0.65539 0.24146,0.34495 0.24146,0.72438 0,0.48292 -0.27595,0.82786 l -1.82819,3.03549 q -0.5864,0.82786 -1.2073,0.82786 -0.24146,0 -0.55191,-0.10348 -0.27595,-0.13797 -0.65539,-0.41393 -2.48358,-1.7592 -5.41559,-2.75953 -2.89751,-1.03483 -6.20896,-1.03483 -4.27728,0 -7.93366,1.62123 -3.62189,1.62122 -6.31244,4.34627 -2.65606,2.72504 -4.1738,6.27794 -1.51775,3.55291 -1.51775,7.41626 0,4.10481 1.55224,7.6922 1.55224,3.55291 4.2083,6.20896 2.65605,2.62156 6.17446,4.13931 3.5529,1.51774 7.55423,1.51774 2.51808,0 5.00166,-0.79337 2.51808,-0.82786 5.10514,-1.93167 l 0,-12.45241 z" />
      <path
         id="path28293"
         style="font-style:normal;font-variant:normal;font-weight:200;font-stretch:normal;font-size:68.98841095px;line-height:1.25;font-family:COCOGOOSE;-inkscape-font-specification:'COCOGOOSE Ultra-Light';fill:#ffffff;fill-opacity:1"
         d="m 334.84105,463.13607 q 0,-0.62089 0.37944,-1.06932 0.41393,-0.44842 1.13831,-0.44842 l 3.5874,0 q 0.62089,0 1.10381,0.41393 0.48292,0.41393 0.48292,1.10381 l 0,48.18841 q 0,1.51774 -1.58673,1.51774 l -3.5874,0 q -1.51775,0 -1.51775,-1.51774 l 0,-48.18841 z" />
      <path
         id="path28295"
         style="font-style:normal;font-variant:normal;font-weight:200;font-stretch:normal;font-size:68.98841095px;line-height:1.25;font-family:COCOGOOSE;-inkscape-font-specification:'COCOGOOSE Ultra-Light';fill:#ffffff;fill-opacity:1"
         d="m 352.62713,463.27405 q 0,-1.65572 1.58673,-1.65572 l 16.1088,0 q 3.69088,0 7.03682,0.89685 3.34593,0.89685 6.20895,2.55257 2.86302,1.65572 5.17413,4.00133 2.31111,2.3456 3.93234,5.20862 1.65572,2.82853 2.55257,6.13997 0.89685,3.27695 0.89685,6.86435 0,3.5529 -0.93134,6.82985 -0.89685,3.24246 -2.58707,6.10547 -1.65572,2.82853 -4.00132,5.17414 -2.34561,2.31111 -5.20863,3.96683 -2.86302,1.65572 -6.17446,2.58706 -3.31145,0.89685 -6.89884,0.89685 l -16.1088,0 q -0.62089,0 -1.10381,-0.27595 -0.48292,-0.31045 -0.48292,-1.1728 l 0,-48.11942 z m 17.52306,42.97978 q 4.20829,0 7.76119,-1.55224 3.55291,-1.55224 6.10548,-4.1738 2.58706,-2.65605 4.03582,-6.17446 1.44876,-3.51841 1.44876,-7.45075 0,-4.20829 -1.51775,-7.65771 -1.51774,-3.44942 -4.1393,-5.89851 -2.58707,-2.44909 -6.07098,-3.79436 -3.48392,-1.34528 -7.45075,-1.34528 l -11.07264,0 0,38.04711 10.90017,0 z" />
      <path
         id="path28297"
         style="font-style:normal;font-variant:normal;font-weight:200;font-stretch:normal;font-size:68.98841095px;line-height:1.25;font-family:COCOGOOSE;-inkscape-font-specification:'COCOGOOSE Ultra-Light';fill:#ffffff;fill-opacity:1"
         d="m 427.54423,463.13607 q 0,-0.62089 0.37943,-1.06932 0.41394,-0.44842 1.13831,-0.44842 l 3.5874,0 q 0.6209,0 1.10382,0.41393 0.48291,0.41393 0.48291,1.10381 l 0,48.18841 q 0,1.51774 -1.58673,1.51774 l -3.5874,0 q -1.51774,0 -1.51774,-1.51774 l 0,-48.18841 z" />
      <path
         id="path28299"
         style="font-style:normal;font-variant:normal;font-weight:200;font-stretch:normal;font-size:68.98841095px;line-height:1.25;font-family:COCOGOOSE;-inkscape-font-specification:'COCOGOOSE Ultra-Light';fill:#ffffff;fill-opacity:1"
         d="m 483.34291,512.84222 q -0.75887,0 -1.31077,-0.75887 l -30.11345,-40.35822 0,39.59935 q 0,1.51774 -1.58673,1.51774 l -3.48391,0 q -1.51775,0 -1.51775,-1.51774 l 0,-48.11942 q 0,-0.68988 0.41393,-1.13831 0.41393,-0.44842 1.10382,-0.44842 l 4.62222,0 q 0.89685,0 1.44876,0.75887 l 29.35456,39.01295 0,-38.49554 q 0.20697,-1.27628 1.51775,-1.27628 l 3.48391,0 q 0.6209,0 1.13831,0.41393 0.55191,0.41393 0.55191,1.10381 l 0,48.18841 q 0,1.51774 -1.69022,1.51774 l -3.93234,0 z" />
      <path
         id="path28301"
         style="font-style:normal;font-variant:normal;font-weight:200;font-stretch:normal;font-size:68.98841095px;line-height:1.25;font-family:COCOGOOSE;-inkscape-font-specification:'COCOGOOSE Ultra-Light';fill:#ffffff;fill-opacity:1"
         d="m 529.32478,472.79445 q -0.48292,-0.31045 -1.58673,-1.2073 -1.10382,-0.89684 -2.72505,-1.82819 -1.58673,-0.93134 -3.58739,-1.65572 -2.00067,-0.75887 -4.31178,-0.75887 -2.72504,0 -4.69121,0.65539 -1.96617,0.65539 -3.24246,1.7592 -1.27628,1.06932 -1.89718,2.44909 -0.5864,1.34527 -0.5864,2.72504 0,1.93168 1.27629,3.24246 1.27628,1.31078 3.38043,2.27662 2.10415,0.96583 4.7602,1.7592 2.69055,0.75887 5.45008,1.62123 2.79404,0.86235 5.45009,1.93167 2.69055,1.06932 4.79469,2.65606 2.10415,1.58673 3.38044,3.79436 1.27628,2.20763 1.27628,5.3466 0,3.62189 -1.51774,6.58839 -1.48325,2.93201 -4.10481,5.03616 -2.58707,2.06965 -6.10548,3.20796 -3.51841,1.13831 -7.55423,1.13831 -2.69055,0 -5.3466,-0.6209 -2.62156,-0.5864 -5.07065,-1.72471 -2.41459,-1.1728 -4.51874,-2.82852 -2.10415,-1.65572 -3.75987,-3.79437 -0.44842,-0.5519 -0.44842,-1.10381 0.0345,-0.55191 0.62089,-1.03483 l 2.72504,-2.27661 q 0.58641,-0.48292 1.13831,-0.41393 0.55191,0.0345 1.00033,0.5864 l 0.44843,0.44842 q 1.44876,1.62123 3.27695,2.82853 1.86269,1.1728 3.69088,1.96617 1.86269,0.75887 3.5529,1.13831 1.69022,0.37943 2.86302,0.37943 2.10415,0 4.31178,-0.55191 2.20763,-0.5519 4.03582,-1.69021 1.82819,-1.13831 3.00099,-2.86302 1.17281,-1.75921 1.17281,-4.10481 0,-1.96617 -1.17281,-3.31144 -1.1383,-1.37977 -3.10447,-2.3801 -1.96617,-1.03483 -4.62223,-1.8282 -2.62156,-0.82786 -5.62255,-1.72471 -4.13931,-1.2073 -7.10581,-2.51808 -2.9665,-1.34527 -4.89818,-2.932 -1.89718,-1.62123 -2.79403,-3.5874 -0.89685,-2.00066 -0.89685,-4.48425 0,-3.13897 1.2418,-5.72603 1.27628,-2.62156 3.58739,-4.51875 2.31111,-1.89718 5.55357,-2.932 3.27695,-1.06932 7.31277,-1.06932 2.17314,0 4.51874,0.5519 2.34561,0.55191 4.55324,1.55224 2.24212,0.96584 4.1738,2.34561 1.96617,1.34527 3.38043,3.00099 0.48292,0.51742 0.48292,1.10382 0.0345,0.55191 -0.51742,1.06932 l -2.44908,2.34561 q -0.55191,0.51741 -1.13831,0.48291 -0.55191,-0.0345 -1.03483,-0.51741 z" />
      <path
         id="path28303"
         style="font-style:normal;font-variant:normal;font-weight:200;font-stretch:normal;font-size:68.98841095px;line-height:1.25;font-family:COCOGOOSE;-inkscape-font-specification:'COCOGOOSE Ultra-Light';fill:#ffffff;fill-opacity:1"
         d="m 580.44627,461.61833 q 1.58673,0 1.58673,1.65572 l 0,3.41493 q 0,0.65539 -0.41393,1.13831 -0.37943,0.48291 -1.24179,0.48291 l -27.80233,0 0,14.17712 21.86933,0 q 0.62089,0 1.06932,0.37944 0.44842,0.34494 0.44842,1.2073 l 0,3.51841 q 0,0.62089 -0.37943,1.10381 -0.37944,0.48292 -1.13831,0.48292 l -21.86933,0 0,16.97115 27.94031,0 q 1.58673,0 1.58673,1.62123 l 0,3.5529 q 0,1.51774 -1.51774,1.51774 l -33.18343,0 q -1.51775,0 -1.51775,-1.44875 l 0,-48.18841 q 0,-1.58673 1.51775,-1.58673 l 33.04545,0 z" />
      <path
         id="path28305"
         style="font-style:normal;font-variant:normal;font-weight:200;font-stretch:normal;font-size:68.98841095px;line-height:1.25;font-family:COCOGOOSE;-inkscape-font-specification:'COCOGOOSE Ultra-Light';fill:#ffffff;fill-opacity:1"
         d="m 623.50043,461.61833 q 0.62089,0 1.10381,0.37944 0.51741,0.37943 0.5864,1.1383 l 0,3.48392 q 0,0.68988 -0.41393,1.2073 -0.41393,0.48291 -1.27628,0.48291 l -14.34959,0 0,42.94529 q 0,0.6209 -0.41393,1.10382 -0.41393,0.48291 -1.17281,0.48291 l -3.48391,0 q -0.6209,0 -1.10381,-0.44842 -0.48292,-0.44843 -0.48292,-1.13831 l 0,-42.94529 -14.41858,0 q -0.68989,0 -1.13831,-0.41393 -0.44843,-0.41393 -0.44843,-1.27628 l 0,-3.48392 q 0,-0.68988 0.44843,-1.10381 0.44842,-0.41393 1.13831,-0.41393 l 35.42555,0 z" />
      <path
         id="path28307"
         style="font-style:normal;font-variant:normal;font-weight:200;font-stretch:normal;font-size:68.98841095px;line-height:1.25;font-family:COCOGOOSE;-inkscape-font-specification:'COCOGOOSE Ultra-Light';fill:#ffffff;fill-opacity:1"
         d="m 634.86248,487.17854 q 0,2.72504 0.68988,5.24311 0.72438,2.48359 2.00067,4.69122 1.27628,2.17313 3.06998,3.96683 1.7937,1.7937 3.96683,3.06998 2.20763,1.27629 4.69122,2.00067 2.51807,0.68988 5.24311,0.68988 2.69055,0 5.20863,-0.68988 2.51808,-0.72438 4.69121,-2.00067 2.17314,-1.27628 3.96684,-3.06998 1.79369,-1.7937 3.06998,-3.96683 1.27629,-2.20763 1.96617,-4.69122 0.72438,-2.51807 0.72438,-5.24311 0,-4.07032 -1.55224,-7.62322 -1.55224,-3.5874 -4.20829,-6.24346 -2.65606,-2.65605 -6.24346,-4.20829 -3.5529,-1.55224 -7.62322,-1.55224 -2.72504,0 -5.24311,0.72438 -2.48359,0.68988 -4.69122,1.96617 -2.17313,1.27629 -3.96683,3.06998 -1.7937,1.7937 -3.06998,3.96684 -1.27629,2.17313 -2.00067,4.69121 -0.68988,2.51808 -0.68988,5.20863 z m 19.73068,-26.2501 q 3.62189,0 6.96783,0.93135 3.38044,0.93134 6.27795,2.65605 2.93201,1.72471 5.3466,4.13931 2.41459,2.3801 4.10481,5.3466 1.72471,2.93201 2.65605,6.31244 0.96584,3.38043 0.96584,7.03682 0,3.62189 -0.93134,7.00232 -0.93134,3.34594 -2.65606,6.27795 -1.72471,2.89751 -4.1393,5.3121 -2.3801,2.3801 -5.31211,4.10481 -2.932,1.69022 -6.31244,2.62156 -3.38043,0.93135 -7.03682,0.93135 -3.65638,0 -7.03681,-0.93135 -3.34594,-0.93134 -6.27795,-2.65605 -2.89751,-1.72471 -5.31211,-4.10481 -2.3801,-2.4146 -4.10481,-5.31211 -1.69021,-2.93201 -2.62156,-6.27794 -0.93134,-3.38044 -0.93134,-7.03682 0,-3.62189 0.93134,-6.96783 0.93135,-3.38043 2.65606,-6.31244 1.72471,-2.93201 4.10481,-5.3466 2.41459,-2.4146 5.3466,-4.10481 2.93201,-1.72471 6.27795,-2.65606 3.38043,-0.96584 7.03681,-0.96584 z" />
      <path
         id="path28309"
         style="font-style:normal;font-variant:normal;font-weight:200;font-stretch:normal;font-size:68.98841095px;line-height:1.25;font-family:COCOGOOSE;-inkscape-font-specification:'COCOGOOSE Ultra-Light';fill:#ffffff;fill-opacity:1"
         d="m 719.9861,472.79445 q -0.48292,-0.31045 -1.58674,-1.2073 -1.10381,-0.89684 -2.72504,-1.82819 -1.58673,-0.93134 -3.5874,-1.65572 -2.00066,-0.75887 -4.31177,-0.75887 -2.72504,0 -4.69121,0.65539 -1.96617,0.65539 -3.24246,1.7592 -1.27629,1.06932 -1.89718,2.44909 -0.5864,1.34527 -0.5864,2.72504 0,1.93168 1.27628,3.24246 1.27629,1.31078 3.38044,2.27662 2.10414,0.96583 4.7602,1.7592 2.69054,0.75887 5.45008,1.62123 2.79403,0.86235 5.45008,1.93167 2.69055,1.06932 4.7947,2.65606 2.10415,1.58673 3.38043,3.79436 1.27629,2.20763 1.27629,5.3466 0,3.62189 -1.51775,6.58839 -1.48325,2.93201 -4.10481,5.03616 -2.58706,2.06965 -6.10547,3.20796 -3.51841,1.13831 -7.55423,1.13831 -2.69055,0 -5.34661,-0.6209 -2.62156,-0.5864 -5.07064,-1.72471 -2.4146,-1.1728 -4.51874,-2.82852 -2.10415,-1.65572 -3.75987,-3.79437 -0.44843,-0.5519 -0.44843,-1.10381 0.0345,-0.55191 0.6209,-1.03483 l 2.72504,-2.27661 q 0.5864,-0.48292 1.13831,-0.41393 0.55191,0.0345 1.00033,0.5864 l 0.44843,0.44842 q 1.44875,1.62123 3.27695,2.82853 1.86268,1.1728 3.69088,1.96617 1.86268,0.75887 3.5529,1.13831 1.69021,0.37943 2.86302,0.37943 2.10414,0 4.31177,-0.55191 2.20763,-0.5519 4.03582,-1.69021 1.8282,-1.13831 3.001,-2.86302 1.1728,-1.75921 1.1728,-4.10481 0,-1.96617 -1.1728,-3.31144 -1.13831,-1.37977 -3.10448,-2.3801 -1.96617,-1.03483 -4.62222,-1.8282 -2.62156,-0.82786 -5.62256,-1.72471 -4.1393,-1.2073 -7.1058,-2.51808 -2.9665,-1.34527 -4.89818,-2.932 -1.89718,-1.62123 -2.79403,-3.5874 -0.89685,-2.00066 -0.89685,-4.48425 0,-3.13897 1.24179,-5.72603 1.27629,-2.62156 3.5874,-4.51875 2.31111,-1.89718 5.55357,-2.932 3.27695,-1.06932 7.31277,-1.06932 2.17313,0 4.51874,0.5519 2.3456,0.55191 4.55323,1.55224 2.24213,0.96584 4.1738,2.34561 1.96617,1.34527 3.38043,3.00099 0.48292,0.51742 0.48292,1.10382 0.0345,0.55191 -0.51741,1.06932 l -2.44909,2.34561 q -0.55191,0.51741 -1.13831,0.48291 -0.5519,-0.0345 -1.03482,-0.51741 z" />
    </g>
    <g
       id="text19573"
       style="font-style:normal;font-weight:normal;font-size:56.79871368px;line-height:0%;font-family:sans-serif;letter-spacing:0px;word-spacing:0px;opacity:1;fill:#000000;fill-opacity:1;stroke:none;stroke-width:1px;stroke-linecap:butt;stroke-linejoin:miter;stroke-opacity:1">
      <path
         id="path28282"
         style="font-style:normal;font-variant:normal;font-weight:normal;font-stretch:normal;font-size:130.16372681px;line-height:1.25;font-family:COCOGOOSE;-inkscape-font-specification:COCOGOOSE;fill:#ffffff"
         d="m 298.39342,603.95793 q 1.10639,0.91114 2.79852,2.47311 1.75721,1.49688 3.97,2.99377 3.31917,2.21278 6.57326,3.44933 3.2541,1.23656 6.8336,1.23656 3.31918,0 5.53196,-0.7159 2.27786,-0.78098 3.5795,-2.01754 1.30164,-1.23655 1.82229,-2.8636 0.58574,-1.62705 0.58574,-3.44934 0,-2.01754 -1.56196,-3.5795 -1.49689,-1.62705 -3.70967,-2.8636 -2.21278,-1.23656 -4.62081,-2.08262 -2.40803,-0.91115 -4.16524,-1.49689 -7.80983,-2.73344 -13.66719,-5.85736 -5.85737,-3.18902 -9.76228,-7.02885 -3.90492,-3.90491 -5.85737,-8.52572 -1.95246,-4.68589 -1.95246,-10.4131 0,-6.05261 2.40803,-10.99883 2.47311,-4.94622 6.96376,-8.46065 4.55573,-3.51442 10.93375,-5.40179 6.37803,-1.95246 14.25293,-1.95246 5.92245,0 11.32425,1.36672 5.46687,1.30164 10.7385,4.23032 2.21279,1.30164 4.16524,2.73344 2.01754,1.36672 3.51442,2.66836 1.49689,1.30164 2.34295,2.47311 0.91115,1.17147 0.91115,2.01754 0,0.84606 -0.45558,1.56196 -0.39049,0.7159 -1.23655,1.62705 l -9.95753,10.60834 q -1.10639,1.10639 -2.21278,1.10639 -0.91115,0 -1.69213,-0.52065 -0.7159,-0.52066 -1.62704,-1.30164 l -0.58574,-0.52065 q -1.30164,-1.10639 -2.92869,-2.27787 -1.56196,-1.17147 -3.38425,-2.08262 -1.82229,-0.97623 -3.83983,-1.56196 -2.01754,-0.65082 -4.10016,-0.65082 -2.1477,0 -4.03508,0.39049 -1.88737,0.32541 -3.31917,1.10639 -1.4318,0.78098 -2.27787,2.08262 -0.84606,1.23656 -0.84606,3.05885 0,1.82229 0.91115,3.18901 0.91114,1.30164 2.73343,2.47311 1.8223,1.10639 4.49065,2.1477 2.73344,0.97623 6.31294,2.1477 6.89868,2.27787 12.69097,4.81606 5.85737,2.47311 10.08769,5.92245 4.23032,3.38426 6.57326,8.13523 2.40803,4.75098 2.40803,11.51949 0,7.15901 -2.92868,13.01638 -2.92868,5.79228 -8.07015,9.89244 -5.07639,4.10016 -11.97506,6.37802 -6.89868,2.21279 -14.83867,2.21279 -7.48441,0 -14.7085,-2.66836 -7.22409,-2.66836 -13.47195,-7.159 -2.60327,-1.88738 -4.42556,-3.70967 -1.75721,-1.82229 -2.79852,-2.92868 l -0.19525,-0.19525 q -0.0651,-0.13016 -0.13016,-0.13016 -0.0651,-0.0651 -0.13017,-0.13017 -0.0651,-0.13016 -0.13016,-0.13016 -0.0651,-0.0651 -0.13016,-0.13017 -1.49689,-1.62704 -1.49689,-2.60327 0,-1.10639 1.49689,-2.47311 l 11.25916,-10.73851 q 1.36672,-0.97623 2.21278,-0.97623 0.58574,0 1.23656,0.3905 0.65082,0.39049 1.56196,1.17147 z" />
      <path
         id="path28284"
         style="font-style:normal;font-variant:normal;font-weight:normal;font-stretch:normal;font-size:130.16372681px;line-height:1.25;font-family:COCOGOOSE;-inkscape-font-specification:COCOGOOSE;fill:#ffffff"
         d="m 366.43651,593.87024 q 0,-5.98753 1.49688,-11.51949 1.56197,-5.53196 4.29541,-10.21785 2.79852,-4.75098 6.63835,-8.59081 3.90491,-3.90491 8.65588,-6.63835 4.75098,-2.73344 10.21786,-4.23032 5.53195,-1.49688 11.51949,-1.49688 8.85113,0 16.59587,3.31917 7.80982,3.2541 13.53703,9.04638 5.79228,5.72721 9.11146,13.53703 3.38426,7.74474 3.38426,16.79112 0,5.98753 -1.56197,11.51949 -1.49688,5.46688 -4.2954,10.21785 -2.73344,4.75098 -6.63835,8.65589 -3.83983,3.83983 -8.59081,6.63835 -4.75097,2.73344 -10.21785,4.23032 -5.40179,1.49688 -11.32424,1.49688 -5.98754,0 -11.51949,-1.49688 -5.46688,-1.49688 -10.21786,-4.23032 -4.75097,-2.79852 -8.65588,-6.63835 -3.83983,-3.90491 -6.63835,-8.65589 -2.73344,-4.75097 -4.29541,-10.21785 -1.49688,-5.53196 -1.49688,-11.51949 z m 23.75488,0 q 0,4.2954 1.30164,8.07015 1.36672,3.70967 3.77475,6.44311 2.47311,2.73343 5.92244,4.36048 3.51443,1.56196 7.87491,1.56196 4.23032,0 7.61458,-1.56196 3.44934,-1.62705 5.79228,-4.36048 2.40803,-2.73344 3.64459,-6.44311 1.30164,-3.77475 1.30164,-8.07015 0,-4.16524 -1.30164,-7.93999 -1.23656,-3.77475 -3.64459,-6.63835 -2.34294,-2.8636 -5.79228,-4.49065 -3.38426,-1.69212 -7.61458,-1.69212 -4.36048,0 -7.87491,1.69212 -3.44933,1.62705 -5.92244,4.49065 -2.40803,2.8636 -3.77475,6.63835 -1.30164,3.77475 -1.30164,7.93999 z" />
      <path
         id="path28286"
         style="font-style:normal;font-variant:normal;font-weight:normal;font-stretch:normal;font-size:130.16372681px;line-height:1.25;font-family:COCOGOOSE;-inkscape-font-specification:COCOGOOSE;fill:#ffffff"
         d="m 465.14332,557.55456 q 0,-2.53819 1.62705,-3.77475 1.62704,-1.30164 3.5795,-1.30164 l 14.77358,0 q 2.34295,0 3.64459,1.49689 1.30163,1.49688 1.30163,3.5795 l 0,74.71398 q 0,6.05261 -2.53819,11.38933 -2.53819,5.33671 -6.83359,9.3067 -4.29541,3.97 -9.89245,6.24786 -5.53196,2.27787 -11.58457,2.27787 l -1.56196,0 q -2.34295,-0.13017 -3.57951,-1.49689 -1.23655,-1.30163 -1.23655,-3.18901 l 0,-9.3067 q 0,-2.34295 1.49688,-3.77475 1.4318,-1.4318 3.51442,-1.4318 l 1.36672,0 q 1.30164,0 2.40803,-1.1064 1.10639,-1.04131 1.88737,-2.60327 0.78099,-1.56196 1.17148,-3.31918 0.45557,-1.69212 0.45557,-2.99376 l 0,-74.71398 z m -0.32541,-32.93142 q 0,-2.73344 1.17147,-3.83983 1.17148,-1.17148 3.64459,-1.17148 l 15.09899,0 q 2.27787,0 3.64459,1.17148 1.4318,1.10639 1.4318,3.83983 l 0,12.69096 q 0,0.78098 -0.39049,1.69213 -0.32541,0.91114 -0.97623,1.75721 -0.65082,0.84606 -1.62705,1.4318 -0.91115,0.52066 -2.08262,0.52066 l -15.09899,0 q -4.81606,0 -4.81606,-5.4018 l 0,-12.69096 z" />
      <path
         id="path28288"
         style="font-style:normal;font-variant:normal;font-weight:normal;font-stretch:normal;font-size:130.16372681px;line-height:1.25;font-family:COCOGOOSE;-inkscape-font-specification:COCOGOOSE;fill:#ffffff"
         d="m 590.8103,630.31608 q 0,1.10639 -0.3905,2.1477 -0.39049,0.97623 -1.30163,1.56197 -0.7159,0.7159 -1.69213,0.91115 -0.97623,0.19524 -1.69213,0.19524 l -12.82113,0 q -1.36672,0 -2.21278,-0.32541 -0.84606,-0.39049 -1.36672,-1.04131 -0.52065,-0.65082 -0.91115,-1.56196 -0.3254,-0.97623 -0.7159,-2.08262 l -0.84606,-2.92869 q -1.75721,1.75721 -4.03508,3.44934 -2.21278,1.69213 -4.94622,3.05885 -2.66835,1.30164 -5.79228,2.08262 -3.05885,0.84606 -6.37803,0.84606 -5.92245,0 -11.38932,-1.49688 -5.4018,-1.49688 -10.15277,-4.23032 -4.6859,-2.79852 -8.52573,-6.63835 -3.83983,-3.90491 -6.63835,-8.65589 -2.73343,-4.75097 -4.23032,-10.21785 -1.49688,-5.53196 -1.49688,-11.51949 0,-9.04638 3.31917,-16.79112 3.31918,-7.80982 9.04638,-13.53703 5.72721,-5.79228 13.47195,-9.04638 7.74474,-3.31917 16.59587,-3.31917 4.03508,0 7.48442,0.91114 3.51442,0.91115 6.37802,2.47311 2.92869,1.56197 5.27163,3.77475 2.34295,2.1477 4.10016,4.6859 l 1.88737,-5.92245 q 0.65082,-1.62705 1.04131,-2.60328 0.45558,-1.04131 0.91115,-1.49688 0.52065,-0.52066 1.23655,-0.65082 0.71591,-0.19524 2.01754,-0.19524 l 9.6972,0 q 0.7159,0 1.69213,0.19524 0.97623,0.19525 1.69213,0.91115 0.91114,0.7159 1.30163,1.62704 0.3905,0.91115 0.3905,2.08262 l 0,73.34726 z m -64.10564,-36.44584 q 0,4.2954 1.30164,8.07015 1.36672,3.70967 3.83983,6.44311 2.47311,2.73343 5.92245,4.36048 3.51442,1.56196 7.74474,1.56196 4.36048,0 8.07015,-1.56196 3.77475,-1.62705 6.50819,-4.36048 2.79852,-2.73344 4.36048,-6.44311 1.56197,-3.77475 1.56197,-8.07015 0,-4.16524 -1.56197,-7.93999 -1.56196,-3.77475 -4.36048,-6.63835 -2.73344,-2.8636 -6.50819,-4.49065 -3.70967,-1.69212 -8.07015,-1.69212 -4.23032,0 -7.74474,1.69212 -3.44934,1.62705 -5.92245,4.49065 -2.47311,2.8636 -3.83983,6.63835 -1.30164,3.77475 -1.30164,7.93999 z" />
    </g>
    <path
       id="path19577"
       d="m 113.42207,438.82653 c -1.95335,0.0531 -3.92393,0.58146 -5.74193,1.63099 -5.81708,3.35835 -7.796903,10.74472 -4.43817,16.56213 l 15.45183,26.76472 c -6.36445,5.3348 -11.63445,11.91933 -15.46104,19.38047 l -17.152653,-4.59638 c -6.80411,-1.82338 -13.75105,2.18587 -15.57422,8.99008 -1.823169,6.80422 2.18742,13.75087 8.99153,15.57426 l 16.98332,4.54996 c -0.0865,1.35602 -0.13536,2.72338 -0.13536,4.10244 l 0,19.39358 -20.17477,0 c -7.044239,0 -12.715899,5.67142 -12.715899,12.71551 0,7.0441 5.67166,12.71445 12.715899,12.71445 l 20.17477,0 0,19.47118 c 0,0.22323 0,0.45 0,0.67536 l -16.85519,4.51559 c -6.8041,1.82338 -10.814989,8.77004 -8.99153,15.57425 1.82289,6.80421 8.77011,10.81311 15.57422,8.99008 l 15.684203,-4.20166 c 9.74097,21.85866 31.60966,37.03288 57.16587,37.03288 21.82433,0 40.95047,-11.07177 52.14005,-27.91666 l -21.26834,-21.26834 c -8.48477,5.45456 -18.18171,8.48445 -29.09056,8.48445 -30.3019,0 -54.54283,-24.24118 -54.54283,-54.54319 0,-30.30201 24.24093,-54.54284 54.54283,-54.54284 30.30187,0 54.54284,24.24083 54.54284,54.54284 0,10.90878 -3.02963,20.6061 -8.48392,29.09055 l 29.09027,29.08878 c 1.24157,0.93118 2.16035,2.18409 2.76619,3.66945 3.4897,-1.46906 6.28724,-4.46918 7.34712,-8.42634 1.82349,-6.80421 -2.18569,-13.75087 -8.9898,-15.57425 l -15.4806,-4.14815 c 0,-0.34725 0,-0.69414 0,-1.0428 l 0,-19.47118 18.39993,0 c 7.04395,0 12.7142,-5.67035 12.7142,-12.71445 0,-7.04409 -5.67025,-12.71551 -12.7142,-12.71551 l -18.39993,0 0,-19.39358 c 0,-1.50201 -0.0578,-2.99091 -0.15839,-4.46528 l 15.62776,-4.18712 c 6.80411,-1.82339 10.81357,-8.77004 8.99008,-15.57426 -1.82289,-6.80421 -8.76838,-10.81346 -15.57245,-8.99008 l -15.94017,4.2704 c -4.05467,-7.79209 -9.69495,-14.60941 -16.50568,-20.03492 l 14.88664,-25.78429 c 3.3587,-5.81741 1.37888,-13.20378 -4.43845,-16.56213 -5.81737,-3.3587 -13.20339,-1.37906 -16.56213,4.43835 l -15.44751,26.75586 c -5.53921,-1.59555 -11.39775,-2.45338 -17.46389,-2.45338 -6.62128,0 -12.99321,1.02472 -18.9741,2.91295 l -15.71386,-27.21685 c -2.3092,-3.99933 -6.52223,-6.18378 -10.82016,-6.06792 z m 47.291,94.29449 c -16.96926,0 -30.30162,13.33276 -30.30162,30.30166 0,16.96925 13.33236,30.30165 30.30162,30.30165 16.96893,0 30.30158,-13.3324 30.30158,-30.30165 0,-16.9689 -13.33265,-30.30166 -30.30158,-30.30166 z"
       style="color:#000000;clip-rule:nonzero;display:inline;overflow:visible;visibility:visible;opacity:1;isolation:auto;mix-blend-mode:normal;color-interpolation:sRGB;color-interpolation-filters:linearRGB;solid-color:#000000;solid-opacity:1;fill:#ffffff;fill-opacity:0.99607843;fill-rule:nonzero;stroke:none;stroke-width:3.65570831;stroke-linecap:round;stroke-linejoin:round;stroke-miterlimit:4;stroke-dasharray:none;stroke-dashoffset:0;stroke-opacity:0.99607843;marker:none;color-rendering:auto;image-rendering:auto;shape-rendering:auto;text-rendering:auto;enable-background:accumulate" />
  </g>
</svg>
