<?xml version="1.0" encoding="UTF-8" standalone="no"?>
<svg
   xmlns:dc="http://purl.org/dc/elements/1.1/"
   xmlns:cc="http://creativecommons.org/ns#"
   xmlns:rdf="http://www.w3.org/1999/02/22-rdf-syntax-ns#"
   xmlns:svg="http://www.w3.org/2000/svg"
   xmlns="http://www.w3.org/2000/svg"
   id="svg17664"
   version="1.1"
   viewBox="0 0 138 62"
   height="62mm"
   width="138mm">
  <defs
     id="defs17658" />
  <metadata
     id="metadata17661">
    <rdf:RDF>
      <cc:Work
         rdf:about="">
        <dc:format>image/svg+xml</dc:format>
        <dc:type
           rdf:resource="http://purl.org/dc/dcmitype/StillImage" />
        <dc:title></dc:title>
      </cc:Work>
    </rdf:RDF>
  </metadata>
  <g
     transform="translate(-39.680603,-50.862625)"
     id="layer1">
    <path
       style="color:#000000;clip-rule:nonzero;display:inline;overflow:visible;visibility:visible;opacity:1;isolation:auto;mix-blend-mode:normal;color-interpolation:sRGB;color-interpolation-filters:linearRGB;solid-color:#000000;solid-opacity:1;fill:#ffffff;fill-opacity:0.99607843;fill-rule:nonzero;stroke:none;stroke-width:2.68407726;stroke-linecap:round;stroke-linejoin:round;stroke-miterlimit:4;stroke-dasharray:none;stroke-dashoffset:0;stroke-opacity:0.99607843;marker:none;color-rendering:auto;image-rendering:auto;shape-rendering:auto;text-rendering:auto;enable-background:accumulate"
       d="m 139.98256,53.488299 c -0.49815,0.0134 -1.00058,0.1482 -1.46417,0.41583 -1.48337,0.85645 -1.98822,2.73989 -1.13178,4.2233 l 3.94023,6.82493 c -1.62293,1.36033 -2.96679,3.03943 -3.94253,4.94189 l -4.3739,-1.172 c -1.73503,-0.4649 -3.50647,0.55742 -3.97134,2.29243 -0.46492,1.73508 0.55778,3.50644 2.29281,3.97137 l 4.33066,1.16022 c -0.0222,0.34581 -0.0345,0.69448 -0.0345,1.04606 v 4.9453 h -5.1445 c -1.79624,0 -3.24249,1.44627 -3.24249,3.24252 0,1.79623 1.44625,3.2421 3.24249,3.2421 h 5.1445 v 4.96504 c 0,0.0576 0.002,0.11483 0.002,0.17227 l -4.29803,1.15152 c -1.73502,0.46492 -2.75773,2.23628 -2.2928,3.97134 0.46486,1.735031 2.23633,2.757331 3.97135,2.292461 l 3.99943,-1.07149 c 2.48394,5.5739 8.06038,9.4433 14.57716,9.4433 5.56508,0 10.44222,-2.82326 13.29551,-7.11861 l -5.42336,-5.423381 c -2.16355,1.39084 -4.6363,2.16345 -7.41799,2.16345 -7.72689,0 -13.90826,-6.18139 -13.90826,-13.90828 0,-7.72689 6.18137,-13.90827 13.90826,-13.90827 7.7269,0 13.90827,6.18138 13.90827,13.90827 0,2.7817 -0.77259,5.25444 -2.16343,7.41797 l 7.41796,7.417591 c 0.31657,0.23741 0.55091,0.55687 0.70535,0.93562 0.88985,-0.3746 1.60321,-1.139611 1.87354,-2.148631 0.46493,-1.73506 -0.55739,-3.50642 -2.29241,-3.97134 l -3.94746,-1.05781 c 0.002,-0.0886 0.003,-0.17705 0.003,-0.26598 v -4.96504 h 4.69188 c 1.79622,0 3.2421,-1.44587 3.2421,-3.2421 0,-1.79625 -1.44588,-3.24252 -3.2421,-3.24252 h -4.69188 v -4.9453 c 0,-0.38296 -0.0144,-0.76256 -0.0406,-1.13861 l 3.98502,-1.06767 c 1.73502,-0.46493 2.75736,-2.23629 2.29244,-3.97137 -0.46488,-1.73501 -2.23594,-2.75733 -3.97096,-2.29243 l -4.06469,1.08892 c -1.03388,-1.98697 -2.47215,-3.72528 -4.20889,-5.10884 l 3.79608,-6.5749 c 0.85644,-1.48341 0.35159,-3.36685 -1.13181,-4.2233 -1.48339,-0.85643 -3.36685,-0.35158 -4.22329,1.13181 l -3.93909,6.82267 c -1.41245,-0.40687 -2.90636,-0.62566 -4.45321,-0.62566 -1.6884,0 -3.3132,0.26133 -4.83832,0.7429 l -4.007,-6.94031 c -0.58882,-1.01981 -1.66312,-1.57684 -2.75914,-1.54724 z m 12.05899,24.04476 c -4.32705,0 -7.72681,3.39974 -7.72681,7.72681 0,4.32705 3.39976,7.72681 7.72681,7.72681 4.32706,0 7.72682,-3.39976 7.72682,-7.72681 0,-4.32707 -3.39976,-7.72681 -7.72682,-7.72681 z"
       id="path17631" />
    <path
       id="path17734"
       style="font-style:normal;font-variant:normal;font-weight:normal;font-stretch:normal;font-size:20px;line-height:1.25;font-family:Cocogoose;-inkscape-font-specification:Cocogoose;letter-spacing:0px;word-spacing:0px;fill:#ffffff;fill-opacity:1;stroke:none;stroke-width:1.03906155px;stroke-linecap:butt;stroke-linejoin:miter;stroke-opacity:1"
       d="m 45.000747,58.813806 q 0,-0.187031 0.114297,-0.322109 0.114297,-0.135078 0.34289,-0.135078 h 3.054841 q 0.15586,0 0.3325,0.124687 0.17664,0.124688 0.17664,0.3325 v 14.515689 q 0,0.457187 -0.50914,0.457187 h -3.054841 q -0.457187,0 -0.457187,-0.457187 z" />
    <path
       id="path17736"
       style="font-style:normal;font-variant:normal;font-weight:normal;font-stretch:normal;font-size:20px;line-height:1.25;font-family:Cocogoose;-inkscape-font-specification:Cocogoose;letter-spacing:0px;word-spacing:0px;fill:#ffffff;fill-opacity:1;stroke:none;stroke-width:1.03906155px;stroke-linecap:butt;stroke-linejoin:miter;stroke-opacity:1"
       d="m 65.749143,66.087237 q 0,1.101405 -0.280547,2.098904 -0.280546,0.987108 -0.800077,1.849529 -0.519531,0.852031 -1.246874,1.548202 -0.716952,0.696171 -1.600154,1.18453 -0.872812,0.488359 -1.891092,0.758515 -1.018281,0.259765 -2.109295,0.259765 h -5.122573 q -0.187031,0 -0.3325,-0.08312 -0.145469,-0.08312 -0.145469,-0.35328 v -14.51569 q 0,-0.218203 0.114297,-0.353281 0.124688,-0.135078 0.363672,-0.135078 h 5.122573 q 1.091014,0 2.098904,0.270156 1.01828,0.270156 1.891092,0.768906 0.883202,0.498749 1.610545,1.194921 0.727343,0.696171 1.236484,1.558592 0.51953,0.862421 0.800077,1.85992 0.290937,0.997499 0.290937,2.088514 z M 56.24173,62.076459 v 7.990383 h 0.872812 q 0.238984,0 0.467578,-0.01039 0.228593,-0.02078 0.457187,-0.04156 0.779296,-0.06234 1.454686,-0.374062 0.67539,-0.322109 1.174139,-0.831249 0.50914,-0.519531 0.789687,-1.215702 0.290937,-0.696171 0.290937,-1.51703 0,-0.872812 -0.332499,-1.600155 -0.322109,-0.737733 -0.883203,-1.267655 -0.561093,-0.540312 -1.319608,-0.831249 -0.748124,-0.301328 -1.600154,-0.301328 z" />
    <path
       id="path17738"
       style="font-style:normal;font-variant:normal;font-weight:normal;font-stretch:normal;font-size:20px;line-height:1.25;font-family:Cocogoose;-inkscape-font-specification:Cocogoose;letter-spacing:0px;word-spacing:0px;fill:#ffffff;fill-opacity:1;stroke:none;stroke-width:1.03906155px;stroke-linecap:butt;stroke-linejoin:miter;stroke-opacity:1"
       d="m 68.200081,70.794185 q 0,-0.207812 0.114297,-0.332499 0.114297,-0.124688 0.34289,-0.124688 h 2.743123 q 0.17664,0 0.322109,0.124688 0.155859,0.124687 0.155859,0.332499 v 2.514529 q 0,0.187031 -0.124687,0.3325 -0.114297,0.145468 -0.353281,0.145468 h -2.743123 q -0.457187,0 -0.457187,-0.477968 z" />
    <path
       id="path17740"
       style="font-style:normal;font-variant:normal;font-weight:normal;font-stretch:normal;font-size:20px;line-height:1.25;font-family:Cocogoose;-inkscape-font-specification:Cocogoose;letter-spacing:0px;word-spacing:0px;fill:#ffffff;fill-opacity:1;stroke:none;stroke-width:1.03906155px;stroke-linecap:butt;stroke-linejoin:miter;stroke-opacity:1"
       d="m 74.781185,58.834587 q 0,-0.218203 0.114297,-0.34289 0.124687,-0.135078 0.34289,-0.135078 h 6.899369 q 0.914374,0 1.724842,0.353281 0.810468,0.34289 1.413123,0.955937 0.613047,0.602655 0.966328,1.423514 0.35328,0.810468 0.35328,1.745623 0,0.779296 -0.249374,1.454686 -0.238984,0.665 -0.685781,1.194921 0.748124,0.685781 1.18453,1.631327 0.436406,0.945545 0.436406,2.005388 0,0.945546 -0.363672,1.797577 -0.363671,0.841639 -0.987108,1.485858 -0.613046,0.633827 -1.444295,1.007889 -0.820859,0.374062 -1.735233,0.374062 h -7.512415 q -0.207812,0 -0.332499,-0.103906 -0.124688,-0.114297 -0.124688,-0.34289 z m 8.374836,10.13085 q 0,-0.311718 -0.124688,-0.623437 -0.114296,-0.311718 -0.332499,-0.550703 -0.207812,-0.249374 -0.50914,-0.405233 -0.290938,-0.15586 -0.633828,-0.15586 h -2.743122 v 3.470466 h 2.743122 q 0.34289,0 0.633828,-0.145469 0.290937,-0.145469 0.50914,-0.384453 0.218203,-0.249374 0.332499,-0.561093 0.124688,-0.311718 0.124688,-0.644218 z M 82.605318,62.92849 q 0,-0.311719 -0.114296,-0.581875 -0.114297,-0.270156 -0.32211,-0.477968 Q 81.9611,61.660835 81.670163,61.546538 81.379226,61.42185 81.036335,61.42185 h -2.223591 v 3.013279 h 2.19242 q 0.35328,0 0.644218,-0.103906 0.301328,-0.114297 0.50914,-0.311719 0.207812,-0.207812 0.322109,-0.477968 0.124687,-0.280547 0.124687,-0.613046 z" />
    <path
       id="path17742"
       style="font-style:normal;font-variant:normal;font-weight:normal;font-stretch:normal;font-size:20px;line-height:1.25;font-family:Cocogoose;-inkscape-font-specification:Cocogoose;letter-spacing:0px;word-spacing:0px;fill:#ffffff;fill-opacity:1;stroke:none;stroke-width:1.03906155px;stroke-linecap:butt;stroke-linejoin:miter;stroke-opacity:1"
       d="m 93.423611,67.625048 q 0,0.768905 0.207812,1.309217 0.218203,0.529922 0.561093,0.872812 0.353281,0.332499 0.810468,0.488359 0.467578,0.155859 0.966328,0.155859 0.51953,0 0.976717,-0.176641 0.467578,-0.187031 0.810468,-0.540312 0.353281,-0.363671 0.550703,-0.893592 0.207812,-0.529922 0.207812,-1.215702 v -8.811242 q 0,-0.187031 0.124688,-0.322109 0.135078,-0.135078 0.353281,-0.135078 h 3.034059 q 0.23898,0 0.37406,0.145469 0.13508,0.135078 0.13508,0.311718 v 8.759289 q 0,1.818357 -0.54031,3.05484 -0.52992,1.236484 -1.43391,1.994998 -0.90398,0.748125 -2.098901,1.080624 -1.18453,0.322109 -2.493747,0.322109 -1.309218,0 -2.504139,-0.332499 -1.19492,-0.34289 -2.098904,-1.101405 -0.903983,-0.768906 -1.444295,-1.994998 -0.529922,-1.236484 -0.529922,-3.023669 v -8.759289 q 0,-0.17664 0.114297,-0.311718 0.124688,-0.145469 0.301328,-0.145469 h 3.117184 q 0.15586,0 0.32211,0.135078 0.17664,0.124687 0.17664,0.322109 z" />
    <path
       id="path17744"
       style="font-style:normal;font-variant:normal;font-weight:normal;font-stretch:normal;font-size:20px;line-height:1.25;font-family:Cocogoose;-inkscape-font-specification:Cocogoose;letter-spacing:0px;word-spacing:0px;fill:#ffffff;fill-opacity:1;stroke:none;stroke-width:1.03906155px;stroke-linecap:butt;stroke-linejoin:miter;stroke-opacity:1"
       d="m 115.29357,62.710287 q -0.52992,-0.374062 -1.13258,-0.581875 -0.60265,-0.207812 -1.28843,-0.207812 -0.86242,0 -1.57938,0.3325 -0.71695,0.322109 -1.23648,0.883202 -0.50914,0.561093 -0.80008,1.319608 -0.29093,0.748124 -0.29093,1.600155 0,0.85203 0.29093,1.600154 0.29094,0.748125 0.80008,1.309218 0.51953,0.550703 1.23648,0.872812 0.71696,0.322109 1.57938,0.322109 0.36367,0 0.71695,-0.05195 0.36367,-0.05195 0.7689,-0.135078 v -2.722341 q 0,-0.197422 0.1143,-0.32211 0.1143,-0.135078 0.34289,-0.135078 h 2.82625 q 0.15586,0 0.3325,0.124688 0.17664,0.124687 0.17664,0.3325 v 5.029057 q 0,0.280547 -0.30133,0.457187 -0.48836,0.3325 -1.08062,0.571484 -0.59227,0.238984 -1.23649,0.394843 -0.64421,0.15586 -1.30921,0.228594 -0.65461,0.08312 -1.27805,0.08312 -1.1014,0 -2.11968,-0.280547 -1.00789,-0.280546 -1.8911,-0.800077 -0.8832,-0.519531 -1.61054,-1.236483 -0.71695,-0.727343 -1.23649,-1.600155 -0.51953,-0.883202 -0.80007,-1.891092 -0.28055,-1.01828 -0.28055,-2.119685 0,-1.101406 0.28055,-2.109295 0.28054,-1.01828 0.80007,-1.901483 0.51954,-0.893593 1.23649,-1.620936 0.72734,-0.727343 1.61054,-1.236483 0.88321,-0.519531 1.8911,-0.800077 1.01828,-0.290937 2.11968,-0.290937 1.24687,0 2.34828,0.35328 1.1118,0.342891 2.08851,0.997499 0.17664,0.103907 0.27016,0.280547 0.0935,0.16625 -0.0416,0.384453 l -1.68328,2.431404 q -0.13508,0.16625 -0.27016,0.228593 -0.13508,0.05195 -0.36367,-0.09351 z" />
    <path
       id="path17747"
       style="font-style:normal;font-variant:normal;font-weight:normal;font-stretch:normal;font-size:27.5px;line-height:1.25;font-family:COCOGOOSE;-inkscape-font-specification:COCOGOOSE;letter-spacing:0px;word-spacing:0px;fill:#ffffff;fill-opacity:1;stroke:none;stroke-width:1.03906155px;stroke-linecap:butt;stroke-linejoin:miter;stroke-opacity:1"
       d="m 45.767783,92.176014 q 0.242828,0.200019 0.614293,0.542909 0.385803,0.328603 0.871565,0.657207 0.72859,0.485761 1.442944,0.757216 0.714355,0.271454 1.500197,0.271454 0.72859,0 1.214351,-0.157158 0.500101,-0.171445 0.785843,-0.4429 0.285742,-0.271454 0.400038,-0.628632 0.128532,-0.357177 0.128532,-0.757216 0,-0.4429 -0.34289,-0.78579 -0.328551,-0.357177 -0.814313,-0.628632 -0.485761,-0.271455 -1.014435,-0.457187 -0.528571,-0.20002 -0.914374,-0.328604 -1.714452,-0.600058 -3.00029,-1.285838 -1.285839,-0.700068 -2.143065,-1.543006 -0.857226,-0.857226 -1.285838,-1.87161 -0.428613,-1.028671 -0.428613,-2.285935 0,-1.3287 0.528674,-2.414519 0.54291,-1.08582 1.528667,-1.857323 1.000097,-0.771503 2.400233,-1.185829 1.400135,-0.428613 3.128925,-0.428613 1.300074,0 2.485955,0.300029 1.200116,0.285742 2.357319,0.928662 0.485761,0.285741 0.914374,0.600058 0.442952,0.300029 0.771503,0.58577 0.328655,0.285742 0.514336,0.54291 0.200019,0.257168 0.200019,0.4429 0,0.185732 -0.09975,0.34289 -0.08624,0.157158 -0.271507,0.357178 l -2.185873,2.328796 q -0.242933,0.242881 -0.485762,0.242881 -0.200019,0 -0.371464,-0.114297 -0.15721,-0.114297 -0.357229,-0.285742 l -0.128532,-0.114296 q -0.285742,-0.242881 -0.642972,-0.500049 -0.34289,-0.257168 -0.742929,-0.457187 -0.400038,-0.214306 -0.842886,-0.34289 -0.442952,-0.142871 -0.900139,-0.142871 -0.471422,0 -0.8858,0.08572 -0.414274,0.07138 -0.72859,0.242881 -0.314316,0.171445 -0.5001,0.457187 -0.185681,0.271455 -0.185681,0.671494 0,0.400038 0.20002,0.700067 0.200019,0.285742 0.600058,0.54291 0.400038,0.242881 0.985757,0.471474 0.600058,0.214307 1.385901,0.471474 1.514432,0.500049 2.785931,1.057245 1.285839,0.54291 2.214552,1.300126 0.928609,0.742929 1.442945,1.785887 0.528674,1.042958 0.528674,2.528816 0,1.57158 -0.642971,2.857419 -0.642867,1.271552 -1.7716,2.171639 -1.114393,0.900087 -2.628826,1.400135 -1.514432,0.485761 -3.257457,0.485761 -1.642964,0 -3.228884,-0.585771 -1.585816,-0.585771 -2.957377,-1.57158 -0.571484,-0.414326 -0.971522,-0.814365 -0.385804,-0.400038 -0.614397,-0.642919 l -0.0426,-0.04281 q -0.01455,-0.02858 -0.02806,-0.02858 -0.01455,-0.01434 -0.02909,-0.02857 -0.01455,-0.02857 -0.02806,-0.02857 -0.01455,-0.01434 -0.02806,-0.02857 -0.328655,-0.357178 -0.328655,-0.571484 0,-0.242881 0.328655,-0.54291 l 2.471616,-2.35737 q 0.300081,-0.214307 0.485761,-0.214307 0.128636,0 0.271507,0.08572 0.142871,0.08572 0.34289,0.257168 z" />
    <path
       id="path17749"
       style="font-style:normal;font-variant:normal;font-weight:normal;font-stretch:normal;font-size:27.5px;line-height:1.25;font-family:COCOGOOSE;-inkscape-font-specification:COCOGOOSE;letter-spacing:0px;word-spacing:0px;fill:#ffffff;fill-opacity:1;stroke:none;stroke-width:1.03906155px;stroke-linecap:butt;stroke-linejoin:miter;stroke-opacity:1"
       d="m 66.37684,88.418507 q 0,1.185829 0.400039,2.2145 0.400038,1.028671 1.114393,1.800174 0.728694,0.757216 1.714452,1.200116 0.985861,0.428613 2.171638,0.428613 1.185881,0 2.171639,-0.428613 1.000097,-0.4429 1.714451,-1.200116 0.728694,-0.771503 1.128733,-1.800174 0.400038,-1.028671 0.400038,-2.2145 0,-1.171541 -0.400038,-2.200212 -0.400039,-1.042958 -1.128733,-1.814461 -0.714354,-0.771504 -1.714451,-1.214404 -0.985758,-0.4429 -2.171639,-0.4429 -1.185777,0 -2.171638,0.4429 -0.985758,0.4429 -1.714452,1.214404 -0.714355,0.771503 -1.114393,1.814461 -0.400039,1.028671 -0.400039,2.200212 z m -5.514819,0.01434 q 0,-1.514432 0.385804,-2.90028 0.385699,-1.400135 1.100054,-2.614538 0.714355,-1.228691 1.700217,-2.228787 1.000096,-1.000097 2.214447,-1.700165 1.214455,-0.714355 2.600252,-1.100106 1.400135,-0.400039 2.914567,-0.400039 1.500197,0 2.900333,0.400039 1.400135,0.385751 2.614486,1.100106 1.214455,0.700068 2.214552,1.700165 1.000097,1.000096 1.700112,2.228787 0.714355,1.214403 1.100159,2.614538 0.400038,1.385848 0.400038,2.90028 0,1.514433 -0.400038,2.914568 -0.385804,1.385848 -1.100159,2.600251 -0.700015,1.200116 -1.700112,2.200213 -1.000097,0.98581 -2.214552,1.700164 -1.214351,0.714355 -2.614486,1.100107 -1.400136,0.385751 -2.900333,0.385751 -1.514432,0 -2.914567,-0.385751 -1.385797,-0.385752 -2.600252,-1.100107 -1.214351,-0.714354 -2.214447,-1.700164 -0.985862,-1.000097 -1.700217,-2.200213 -0.714355,-1.214403 -1.100054,-2.600251 -0.385804,-1.400135 -0.385804,-2.914568 z" />
    <path
       id="path17751"
       style="font-style:normal;font-variant:normal;font-weight:normal;font-stretch:normal;font-size:27.5px;line-height:1.25;font-family:COCOGOOSE;-inkscape-font-specification:COCOGOOSE;letter-spacing:0px;word-spacing:0px;fill:#ffffff;fill-opacity:1;stroke:none;stroke-width:1.03906155px;stroke-linecap:butt;stroke-linejoin:miter;stroke-opacity:1"
       d="m 88.880834,78.374679 q 0,-0.528622 0.557249,-0.571484 h 4.214641 q 0.771503,0 0.771503,0.742929 v 19.573321 q 0,1.414423 -0.571484,2.643115 -0.557144,1.24298 -1.514432,2.15735 -0.957183,0.92866 -2.228787,1.45728 -1.257264,0.52863 -2.657399,0.52863 -0.828652,0 -1.628729,-0.18574 -0.800078,-0.18573 -1.528668,-0.55719 -0.714354,-0.35718 -1.328751,-0.90009 -0.628633,-0.52862 -1.100055,-1.22869 -0.0426,-0.0143 -0.0426,-0.22859 0,-0.37147 0.228593,-0.54291 l 2.485955,-2.3288 q 0.114297,-0.09996 0.242932,-0.157158 0.128532,-0.07138 0.242829,-0.07138 0.214358,0 0.400039,0.157158 0.200019,0.157158 0.428613,0.342891 0.242932,0.200019 0.557248,0.357177 0.314316,0.157158 0.757164,0.157158 0.328656,0 0.642972,-0.128584 0.314316,-0.128584 0.542909,-0.34289 0.242829,-0.214307 0.3857,-0.500049 0.142871,-0.300029 0.142871,-0.628632 z" />
    <path
       id="path17753"
       style="font-style:normal;font-variant:normal;font-weight:normal;font-stretch:normal;font-size:27.5px;line-height:1.25;font-family:COCOGOOSE;-inkscape-font-specification:COCOGOOSE;letter-spacing:0px;word-spacing:0px;fill:#ffffff;fill-opacity:1;stroke:none;stroke-width:1.03906155px;stroke-linecap:butt;stroke-linejoin:miter;stroke-opacity:1"
       d="m 105.14443,78.360392 q 0.0145,-0.08572 0.0852,-0.185732 0.0852,-0.09996 0.20001,-0.185732 0.1143,-0.08572 0.24294,-0.128584 0.12853,-0.05715 0.24283,-0.05715 h 3.65749 q 0.24294,0 0.41438,0.157158 0.17145,0.142871 0.25717,0.257168 l 0.35712,0.814365 7.50078,19.344727 q 0.1143,0.285742 -0.0426,0.471474 -0.15711,0.171445 -0.54291,0.171445 h -4.10034 q -0.32866,0 -0.51434,-0.114296 -0.17145,-0.128584 -0.27151,-0.414326 -0.28574,-0.728642 -0.55714,-1.442997 -0.27151,-0.728642 -0.54291,-1.457284 h -7.5865 q -0.2714,0.728642 -0.55715,1.457284 -0.2715,0.714355 -0.54291,1.442997 -0.18578,0.528622 -0.72869,0.528622 h -4.214641 q -0.271507,0 -0.457187,-0.142871 -0.171445,-0.142871 -0.05715,-0.428612 z m 2.60025,6.114877 q -0.2714,0.728642 -0.55714,1.571581 -0.27151,0.842938 -0.54291,1.700164 -0.27151,0.857226 -0.55725,1.700164 -0.2714,0.828652 -0.54291,1.557294 h 4.38619 z" />
  </g>
</svg>
