<svg xmlns="http://www.w3.org/2000/svg" xmlns:xlink="http://www.w3.org/1999/xlink" viewBox="0 0 107.76 107.76">
  <g transform="translate(-24.17 -90.885)">
    <g transform="translate(327.854 546.283) scale(.28222)">
      <path style="isolation:auto;mix-blend-mode:normal;marker:none" d="M-952.236-1588.01a18.206 18.206 0 0 0-8.636 2.452 18.194 18.194 0 0 0-6.675 24.908l23.239 40.253a94.024 94.024 0 0 0-23.253 29.147l-25.796-6.913a19.082 19.082 0 0 0-23.423 13.52 19.084 19.084 0 0 0 13.523 23.423l25.542 6.843a96.39 96.39 0 0 0-.204 6.17v29.167h-30.342a19.083 19.083 0 0 0-19.123 19.123 19.08 19.08 0 0 0 19.123 19.122h30.342v29.283c0 .34.013.677.013 1.016l-25.349 6.792a19.083 19.083 0 0 0-13.523 23.422 19.082 19.082 0 0 0 23.423 13.52l23.588-6.319c14.65 32.874 47.54 55.696 85.974 55.696 32.823 0 61.587-16.652 78.416-41.985l-31.987-31.986c-12.76 8.203-27.344 12.76-43.75 12.76-45.572 0-82.03-36.458-82.03-82.03s36.458-82.03 82.03-82.03 82.03 36.458 82.03 82.03c0 16.406-4.558 30.99-12.76 43.75l43.75 43.748c1.867 1.4 3.249 3.285 4.16 5.518 5.248-2.209 9.455-6.721 11.05-12.672a19.082 19.082 0 0 0-13.52-23.422l-23.282-6.24a61.58 61.58 0 0 0 .016-1.568v-29.283h27.672a19.079 19.079 0 0 0 19.121-19.122 19.08 19.08 0 0 0-19.121-19.123h-27.672v-29.167c0-2.259-.085-4.498-.24-6.716l23.503-6.297a19.082 19.082 0 0 0 13.52-23.422 19.08 19.08 0 0 0-23.42-13.52l-23.972 6.422a94.03 94.03 0 0 0-24.824-30.132l22.389-38.778a18.194 18.194 0 0 0-6.675-24.908 18.194 18.194 0 0 0-24.909 6.675l-23.232 40.24a94.75 94.75 0 0 0-26.264-3.69 94.603 94.603 0 0 0-28.536 4.38l-23.633-40.932a18.192 18.192 0 0 0-16.273-9.126zm71.122 141.812c-25.52 0-45.572 20.052-45.572 45.572 0 25.52 20.052 45.572 45.572 45.572 25.52 0 45.572-20.052 45.572-45.572 0-25.52-20.052-45.572-45.572-45.572z" color="#000" overflow="visible" fill="#ffffff"/>
    </g>
  </g>
</svg>