<?xml version="1.0" encoding="UTF-8" standalone="no"?>
<svg
   xmlns:dc="http://purl.org/dc/elements/1.1/"
   xmlns:cc="http://creativecommons.org/ns#"
   xmlns:rdf="http://www.w3.org/1999/02/22-rdf-syntax-ns#"
   xmlns:svg="http://www.w3.org/2000/svg"
   xmlns="http://www.w3.org/2000/svg"
   version="1.1"
   id="svg30128"
   viewBox="0 0 432.73757 237.55875"
   height="67.044357mm"
   width="122.12816mm">
  <defs
     id="defs30130" />
  <metadata
     id="metadata30133">
    <rdf:RDF>
      <cc:Work
         rdf:about="">
        <dc:format>image/svg+xml</dc:format>
        <dc:type
           rdf:resource="http://purl.org/dc/dcmitype/StillImage" />
        <dc:title></dc:title>
      </cc:Work>
    </rdf:RDF>
  </metadata>
  <g
     transform="translate(-208.93472,-433.50067)"
     id="layer1">
    <g
       id="text30102"
       style="font-style:normal;font-weight:normal;font-size:64.23969269px;line-height:0%;font-family:sans-serif;letter-spacing:0px;word-spacing:0px;opacity:1;fill:#ffffff;fill-opacity:1;stroke:none;stroke-width:1px;stroke-linecap:butt;stroke-linejoin:miter;stroke-opacity:1">
      <path
         id="path30742"
         style="font-style:normal;font-variant:normal;font-weight:normal;font-stretch:normal;font-size:107.06616211px;line-height:1.25;font-family:COCOGOOSE;-inkscape-font-specification:COCOGOOSE;fill:#ffffff;fill-opacity:1"
         d="m 278.32151,498.82625 q -2.73018,-1.92719 -5.8351,-2.99785 -3.10492,-1.07066 -6.6381,-1.07066 -4.44325,0 -8.13703,1.71306 -3.69379,1.65952 -6.37044,4.55031 -2.62312,2.89079 -4.12205,6.7987 -1.49892,3.85438 -1.49892,8.24409 0,4.38972 1.49892,8.2441 1.49893,3.85438 4.12205,6.74517 2.67665,2.83725 6.37044,4.49678 3.69378,1.65952 8.13703,1.65952 1.87365,0 3.69378,-0.26766 1.87366,-0.26767 3.96145,-0.69593 l 0,-14.02567 q 0,-1.01713 0.58886,-1.65953 0.58886,-0.69593 1.76659,-0.69593 l 14.561,0 q 0.803,0 1.71306,0.6424 0.91006,0.6424 0.91006,1.71306 l 0,25.91001 q 0,1.44539 -1.55246,2.35546 -2.51605,1.71305 -5.56744,2.94432 -3.05138,1.23126 -6.37044,2.03425 -3.31905,0.803 -6.74516,1.17773 -3.37259,0.42826 -6.58457,0.42826 -5.67451,0 -10.92075,-1.44539 -5.19271,-1.44539 -9.74302,-4.12205 -4.55031,-2.67665 -8.29763,-6.37043 -3.69378,-3.74732 -6.37044,-8.2441 -2.67665,-4.55031 -4.12204,-9.74302 -1.4454,-5.24624 -1.4454,-10.92075 0,-5.6745 1.4454,-10.86721 1.44539,-5.24624 4.12204,-9.79656 2.67666,-4.60384 6.37044,-8.35116 3.74732,-3.74731 8.29763,-6.37043 4.55031,-2.67666 9.74302,-4.12205 5.24624,-1.49893 10.92075,-1.49893 6.42397,0 12.09847,1.82013 5.72804,1.76659 10.76015,5.13917 0.91007,0.53534 1.39186,1.4454 0.4818,0.85653 -0.21413,1.98072 l -8.67236,12.52674 q -0.69593,0.85653 -1.39186,1.17773 -0.69593,0.26767 -1.87366,-0.4818 z" />
      <path
         id="path30744"
         style="font-style:normal;font-variant:normal;font-weight:normal;font-stretch:normal;font-size:107.06616211px;line-height:1.25;font-family:COCOGOOSE;-inkscape-font-specification:COCOGOOSE;fill:#ffffff;fill-opacity:1"
         d="m 308.88388,478.75135 q 0,-0.9636 0.58887,-1.65953 0.58886,-0.69593 1.76659,-0.69593 l 15.73873,0 q 0.80299,0 1.71305,0.6424 0.91007,0.6424 0.91007,1.71306 l 0,74.78571 q 0,2.35546 -2.62312,2.35546 l -15.73873,0 q -2.35546,0 -2.35546,-2.35546 l 0,-74.78571 z" />
      <path
         id="path30746"
         style="font-style:normal;font-variant:normal;font-weight:normal;font-stretch:normal;font-size:107.06616211px;line-height:1.25;font-family:COCOGOOSE;-inkscape-font-specification:COCOGOOSE;fill:#ffffff;fill-opacity:1"
         d="m 415.78108,516.2245 q 0,5.67451 -1.44539,10.81369 -1.4454,5.08564 -4.12205,9.52888 -2.67666,4.38972 -6.42397,7.97643 -3.69378,3.58672 -8.2441,6.10278 -4.49677,2.51605 -9.74302,3.90791 -5.24624,1.33833 -10.86721,1.33833 l -26.39181,0 q -0.9636,0 -1.71306,-0.42827 -0.74946,-0.42826 -0.74946,-1.82012 l 0,-74.78572 q 0,-1.12419 0.58886,-1.82012 0.6424,-0.69593 1.87366,-0.69593 l 26.39181,0 q 5.62097,0 10.81368,1.39186 5.24624,1.39186 9.74302,3.96145 4.55031,2.56958 8.29763,6.1563 3.74731,3.58672 6.37044,8.02996 2.67665,4.44325 4.12204,9.58242 1.49893,5.13918 1.49893,10.76015 z m -48.98277,-20.66377 0,41.16694 4.49678,0 q 1.23126,0 2.40899,-0.0535 1.17772,-0.10707 2.35545,-0.21413 4.01498,-0.3212 7.49463,-1.92719 3.47965,-1.65953 6.04924,-4.28265 2.62312,-2.67665 4.06852,-6.26337 1.49892,-3.58672 1.49892,-7.81583 0,-4.49678 -1.71306,-8.24409 -1.65952,-3.80085 -4.55031,-6.53104 -2.89078,-2.78372 -6.7987,-4.28265 -3.85438,-1.55246 -8.24409,-1.55246 l -7.06637,0 z" />
    </g>
    <g
       id="text30106"
       style="font-style:normal;font-weight:normal;font-size:35.69728088px;line-height:0%;font-family:sans-serif;letter-spacing:0px;word-spacing:0px;opacity:1;fill:#000000;fill-opacity:1;stroke:none;stroke-width:1px;stroke-linecap:butt;stroke-linejoin:miter;stroke-opacity:1">
      <path
         id="path30733"
         style="font-style:normal;font-variant:normal;font-weight:200;font-stretch:normal;font-size:81.80626678px;line-height:1.25;font-family:COCOGOOSE;-inkscape-font-specification:'COCOGOOSE Ultra-Light';fill:#ffffff"
         d="m 262.42284,585.57384 q -0.57264,-0.36813 -1.88154,-1.43161 -1.3089,-1.06348 -3.23135,-2.16787 -1.88154,-1.10438 -4.25392,-1.96335 -2.37238,-0.89987 -5.11289,-0.89987 -3.23135,0 -5.56283,0.77716 -2.33148,0.77716 -3.8449,2.08606 -1.51341,1.268 -2.24967,2.90413 -0.69535,1.59522 -0.69535,3.23134 0,2.29058 1.51341,3.8449 1.51342,1.55432 4.00851,2.69961 2.49509,1.14528 5.64463,2.08606 3.19045,0.89986 6.4627,1.92244 3.31315,1.02258 6.46269,2.29058 3.19045,1.268 5.68554,3.14954 2.49509,1.88154 4.00851,4.49934 1.51341,2.6178 1.51341,6.33999 0,4.29483 -1.79973,7.8125 -1.75884,3.47676 -4.86748,5.97186 -3.06773,2.45418 -7.23985,3.80399 -4.17212,1.3498 -8.95779,1.3498 -3.19044,0 -6.33998,-0.73626 -3.10864,-0.69535 -6.01276,-2.04515 -2.86322,-1.39071 -5.35832,-3.35406 -2.49509,-1.96335 -4.45844,-4.49934 -0.53174,-0.65445 -0.53174,-1.3089 0.0409,-0.65445 0.73626,-1.2271 l 3.23135,-2.69961 q 0.69535,-0.57264 1.3498,-0.49083 0.65445,0.0409 1.18619,0.69535 l 0.53174,0.53174 q 1.71793,1.92245 3.8858,3.35406 2.20877,1.3907 4.37663,2.33148 2.20877,0.89987 4.21303,1.3498 2.00425,0.44993 3.39496,0.44993 2.49509,0 5.11289,-0.65445 2.6178,-0.65445 4.78567,-2.00425 2.16786,-1.3498 3.55857,-3.39496 1.3907,-2.08606 1.3907,-4.86747 0,-2.33148 -1.3907,-3.9267 -1.34981,-1.63613 -3.68128,-2.82232 -2.33148,-1.22709 -5.48102,-2.16787 -3.10864,-0.98167 -6.66721,-2.04515 -4.90838,-1.43161 -8.42605,-2.98593 -3.51767,-1.59522 -5.80824,-3.47677 -2.24968,-1.92244 -3.31316,-4.25392 -1.06348,-2.37238 -1.06348,-5.31741 0,-3.72219 1.47251,-6.78992 1.51342,-3.10864 4.25393,-5.35831 2.74051,-2.24967 6.5854,-3.47677 3.8858,-1.26799 8.67147,-1.26799 2.57689,0 5.35831,0.65445 2.78141,0.65445 5.39921,1.84064 2.6587,1.14528 4.94928,2.78141 2.33148,1.59522 4.00851,3.55857 0.57264,0.61355 0.57264,1.3089 0.0409,0.65445 -0.61355,1.268 l -2.90412,2.78141 q -0.65445,0.61355 -1.3498,0.57265 -0.65445,-0.0409 -1.2271,-0.61355 z" />
      <path
         id="path30735"
         style="font-style:normal;font-variant:normal;font-weight:200;font-stretch:normal;font-size:81.80626678px;line-height:1.25;font-family:COCOGOOSE;-inkscape-font-specification:'COCOGOOSE Ultra-Light';fill:#ffffff"
         d="m 279.76705,607.17069 q 0,-5.52192 2.12697,-10.38939 2.16786,-4.90838 5.80824,-8.58966 3.68128,-3.68128 8.54876,-5.80824 4.86747,-2.12697 10.34849,-2.12697 3.64038,0 7.03534,0.98168 3.43586,0.94077 6.42179,2.74051 2.98593,1.75883 5.44012,4.21302 2.45418,2.45419 4.21302,5.48102 1.79974,2.98593 2.74051,6.42179 0.98167,3.39496 0.98167,7.07624 0,3.68129 -0.98167,7.11715 -0.94077,3.39496 -2.74051,6.38089 -1.75884,2.98593 -4.21302,5.44012 -2.45419,2.45418 -5.44012,4.21302 -2.98593,1.75883 -6.42179,2.74051 -3.39496,0.94077 -7.03534,0.94077 -3.64038,0 -7.07624,-0.94077 -3.39496,-0.98168 -6.38089,-2.74051 -2.98593,-1.75884 -5.44012,-4.21302 -2.45419,-2.45419 -4.21302,-5.44012 -1.75884,-2.98593 -2.74051,-6.38089 -0.98168,-3.43586 -0.98168,-7.11715 z m 8.13973,0 q 0,3.8858 1.47251,7.36257 1.47251,3.47676 4.00851,6.09457 2.53599,2.6178 5.93095,4.17211 3.39496,1.55432 7.28076,1.55432 3.84489,0 7.19895,-1.55432 3.39496,-1.55431 5.89005,-4.17211 2.53599,-2.61781 3.9676,-6.09457 1.47252,-3.47677 1.47252,-7.36257 0,-3.80399 -1.47252,-7.32166 -1.43161,-3.51767 -3.9676,-6.17637 -2.49509,-2.69961 -5.89005,-4.29483 -3.35406,-1.59522 -7.19895,-1.59522 -3.8858,0 -7.28076,1.59522 -3.39496,1.59522 -5.93095,4.29483 -2.536,2.6587 -4.00851,6.17637 -1.47251,3.51767 -1.47251,7.32166 z" />
      <path
         id="path30737"
         style="font-style:normal;font-variant:normal;font-weight:200;font-stretch:normal;font-size:81.80626678px;line-height:1.25;font-family:COCOGOOSE;-inkscape-font-specification:'COCOGOOSE Ultra-Light';fill:#ffffff"
         d="m 338.6484,649.34183 q -0.94078,0 -1.51342,-0.57265 -0.57264,-0.53174 -0.57264,-1.47251 l 0,-2.69961 q 0,-1.02258 0.61354,-1.59522 0.61355,-0.57264 1.55432,-0.57264 l 0.28632,0 q 1.06349,-0.0818 1.96336,-0.73626 0.94077,-0.61355 1.59522,-1.55432 0.69535,-0.94077 1.06348,-2.08606 0.40903,-1.10438 0.40903,-2.20877 l 0,-52.56053 q 0,-1.06348 0.65445,-1.59522 0.65445,-0.57264 1.59522,-0.57264 l 3.96761,0 q 1.06348,0 1.59522,0.61355 0.57264,0.61354 0.57264,1.55431 l 0,52.56053 q 0,2.78141 -1.14529,5.2356 -1.14528,2.45419 -3.06773,4.29483 -1.92245,1.84064 -4.41754,2.90412 -2.49509,1.06349 -5.15379,1.06349 z m 5.3174,-81.88808 q 0.12271,-1.67703 1.71794,-1.79974 l 4.74476,0 q 0.53174,0.0409 0.89987,0.12271 0.36813,0.0409 0.57264,0.28633 0.20452,0.20451 0.28632,0.61354 0.12271,0.40903 0.12271,1.10439 l 0,3.35405 q 0,0.32723 -0.0818,0.73626 -0.0409,0.40903 -0.24542,0.77716 -0.16361,0.36813 -0.53174,0.61355 -0.36813,0.24542 -1.02258,0.28632 l -4.74476,0 q -1.71794,-0.24542 -1.71794,-2.16787 l 0,-3.9267 z" />
      <path
         id="path30739"
         style="font-style:normal;font-variant:normal;font-weight:200;font-stretch:normal;font-size:81.80626678px;line-height:1.25;font-family:COCOGOOSE;-inkscape-font-specification:'COCOGOOSE Ultra-Light';fill:#ffffff"
         d="m 407.96386,626.14975 q -3.51767,3.59947 -8.18063,5.68553 -4.66296,2.04516 -10.10307,2.04516 -3.64038,0 -7.07624,-0.94077 -3.39496,-0.98168 -6.38089,-2.74051 -2.98593,-1.79974 -5.44012,-4.25393 -2.45419,-2.45419 -4.25393,-5.44011 -1.75883,-3.02684 -2.74051,-6.4218 -0.94077,-3.43586 -0.94077,-7.11714 0,-3.68128 0.94077,-7.07624 0.98168,-3.43587 2.74051,-6.4218 1.79974,-2.98592 4.25393,-5.44011 2.45419,-2.45419 5.44012,-4.21302 2.98593,-1.75884 6.38089,-2.69961 3.39496,-0.98168 7.07624,-0.98168 5.44011,0 10.10307,2.08606 4.66296,2.04516 8.18063,5.64464 l 0,-4.99019 q 0,-1.79973 1.79974,-1.79973 l 4.21302,0 q 1.92245,0 1.92245,1.79973 l 0,48.38841 q 0,0.81806 -0.53174,1.3089 -0.53174,0.49084 -1.268,0.49084 l -4.25393,0 q -0.85896,0 -1.3907,-0.53174 -0.49084,-0.53174 -0.49084,-1.268 l 0,-5.11289 z m 0.40903,-19.18357 q 0,-3.8449 -1.47251,-7.32166 -1.47252,-3.51767 -4.00851,-6.13547 -2.53599,-2.6178 -5.97186,-4.17212 -3.39496,-1.55432 -7.23985,-1.55432 -3.8449,0 -7.23986,1.55432 -3.35405,1.55432 -5.89005,4.17212 -2.49509,2.6178 -3.9676,6.13547 -1.43161,3.47676 -1.43161,7.32166 0,3.80399 1.43161,7.32166 1.47251,3.51767 3.9676,6.21728 2.536,2.6587 5.89005,4.25392 3.39496,1.59522 7.23986,1.59522 3.84489,0 7.23985,-1.59522 3.43587,-1.59522 5.97186,-4.25392 2.53599,-2.69961 4.00851,-6.21728 1.47251,-3.51767 1.47251,-7.32166 z" />
    </g>
    <path
       style="color:#000000;font-style:normal;font-weight:normal;font-size:medium;line-height:0%;font-family:sans-serif;letter-spacing:0px;word-spacing:0px;clip-rule:nonzero;display:inline;overflow:visible;visibility:visible;opacity:1;isolation:auto;mix-blend-mode:normal;color-interpolation:sRGB;color-interpolation-filters:linearRGB;solid-color:#000000;solid-opacity:1;fill:#ffffff;fill-opacity:0.99607843;fill-rule:nonzero;stroke:none;stroke-width:3.65570831;stroke-linecap:round;stroke-linejoin:round;stroke-miterlimit:4;stroke-dasharray:none;stroke-dashoffset:0;stroke-opacity:0.99607843;marker:none;color-rendering:auto;image-rendering:auto;shape-rendering:auto;text-rendering:auto;enable-background:accumulate"
       d="m 486.09373,442.36222 c -1.95307,0.0532 -3.92386,0.58145 -5.74193,1.63098 -5.81704,3.35835 -7.79669,10.74472 -4.43799,16.56213 l 15.45165,26.76472 c -6.36448,5.3348 -11.63444,11.91933 -15.46086,19.38047 l -17.1528,-4.59637 c -6.80386,-1.82339 -13.75086,2.18586 -15.57425,8.99007 -1.82303,6.80422 2.18764,13.75087 8.9915,15.57426 l 16.98342,4.54996 c -0.085,1.35602 -0.13464,2.72338 -0.13464,4.10244 l 0,19.39358 -20.17453,0 c -7.04445,0 -12.71622,5.67142 -12.71622,12.71551 0,7.0441 5.67177,12.71445 12.71622,12.71445 l 20.17453,0 0,19.47118 c 0,0.22323 0,0.45 0,0.67536 l -16.85516,4.51559 c -6.80421,1.82338 -10.81488,8.77004 -8.9915,15.57425 1.82303,6.80421 8.77004,10.81311 15.57426,8.99008 l 15.68409,-4.20166 c 9.74091,21.85867 31.60984,37.03288 57.16594,37.03288 21.8243,0 40.95036,-11.07177 52.14012,-27.91666 L 562.46724,613.0171 c -8.48481,5.45457 -18.18178,8.48445 -29.09055,8.48445 -30.30201,0 -54.54284,-24.24118 -54.54284,-54.54319 0,-30.30201 24.24083,-54.54284 54.54284,-54.54284 30.30165,0 54.54283,24.24083 54.54283,54.54284 0,10.90878 -3.02953,20.6061 -8.48409,29.09055 l 29.09055,29.08878 c 1.24122,0.93118 2.16035,2.18409 2.7659,3.66945 3.48981,-1.46906 6.28725,-4.46918 7.3474,-8.42634 1.82339,-6.80421 -2.18586,-13.75087 -8.99007,-15.57425 l -15.48036,-4.14815 c 0,-0.34725 0,-0.69414 0,-1.0428 l 0,-19.47118 18.39969,0 c 7.04409,0 12.71444,-5.67035 12.71444,-12.71445 0,-7.04409 -5.67035,-12.71551 -12.71444,-12.71551 l -18.39969,0 0,-19.39358 c 0,-1.50201 -0.0567,-2.99091 -0.15945,-4.46528 l 15.62776,-4.18712 c 6.80386,-1.82339 10.81346,-8.77004 8.99008,-15.57426 -1.82303,-6.80421 -8.76863,-10.81346 -15.57248,-8.99007 l -15.94028,4.27039 c -4.05461,-7.79209 -9.69484,-14.60941 -16.50579,-20.03492 l 14.88685,-25.78429 c 3.3587,-5.81741 1.3787,-13.20378 -4.4387,-16.56213 -5.8174,-3.3587 -13.20307,-1.37906 -16.56177,4.43835 l -15.44775,26.75586 c -5.53926,-1.59555 -11.39776,-2.45338 -17.4639,-2.45338 -6.62138,0 -12.99296,1.02472 -18.97406,2.91295 L 496.8955,448.43013 c -2.30917,-3.99933 -6.52216,-6.18378 -10.82019,-6.06791 z m 47.2911,94.29448 c -16.96925,0 -30.30165,13.33276 -30.30165,30.30166 0,16.96925 13.3324,30.30165 30.30165,30.30165 16.9689,0 30.30166,-13.3324 30.30166,-30.30165 0,-16.9689 -13.33276,-30.30166 -30.30166,-30.30166 z"
       id="path30110" />
  </g>
</svg>
