<?xml version="1.0" encoding="UTF-8" standalone="no"?>
<svg
   xmlns:dc="http://purl.org/dc/elements/1.1/"
   xmlns:cc="http://creativecommons.org/ns#"
   xmlns:rdf="http://www.w3.org/1999/02/22-rdf-syntax-ns#"
   xmlns:svg="http://www.w3.org/2000/svg"
   xmlns="http://www.w3.org/2000/svg"
   version="1.1"
   id="svg19693"
   viewBox="0 0 764.14427 285.09362"
   height="80.459755mm"
   width="215.65849mm">
  <defs
     id="defs19695" />
  <metadata
     id="metadata19698">
    <rdf:RDF>
      <cc:Work
         rdf:about="">
        <dc:format>image/svg+xml</dc:format>
        <dc:type
           rdf:resource="http://purl.org/dc/dcmitype/StillImage" />
        <dc:title></dc:title>
      </cc:Work>
    </rdf:RDF>
  </metadata>
  <g
     transform="translate(0.38950264,-308.47049)"
     id="layer1">
    <g
       id="text19669"
       style="font-style:normal;font-weight:normal;font-size:49.26501846px;line-height:0%;font-family:sans-serif;letter-spacing:0px;word-spacing:0px;opacity:1;fill:#ffffff;fill-opacity:1;stroke:none;stroke-width:1px;stroke-linecap:butt;stroke-linejoin:miter;stroke-opacity:1">
      <path
         id="path20267"
         style="font-style:normal;font-variant:normal;font-weight:normal;font-stretch:normal;font-size:82.10836792px;line-height:1.25;font-family:COCOGOOSE;-inkscape-font-specification:COCOGOOSE;fill:#ffffff;fill-opacity:1"
         d="m 289.14089,376.2016 q -2.09376,-1.47795 -4.4749,-2.29903 -2.38114,-0.82109 -5.09072,-0.82109 -3.4075,0 -6.24024,1.31374 -2.83274,1.27268 -4.88544,3.4896 -2.01166,2.21693 -3.16118,5.21389 -1.14951,2.9559 -1.14951,6.32234 0,3.36644 1.14951,6.32234 1.14952,2.95591 3.16118,5.17283 2.0527,2.17587 4.88544,3.44855 2.83274,1.27268 6.24024,1.27268 1.4369,0 2.83274,-0.20527 1.43689,-0.20527 3.03801,-0.5337 l 0,-10.7562 q 0,-0.78003 0.45159,-1.27268 0.4516,-0.5337 1.35479,-0.5337 l 11.16674,0 q 0.61581,0 1.31373,0.49265 0.69792,0.49265 0.69792,1.31373 l 0,19.87023 q 0,1.10846 -1.19057,1.80638 -1.92954,1.31373 -4.26963,2.25798 -2.34009,0.94425 -4.88545,1.56006 -2.54536,0.61581 -5.17283,0.90319 -2.58641,0.32843 -5.04966,0.32843 -4.35174,0 -8.37505,-1.10846 -3.98226,-1.10846 -7.47187,-3.16117 -3.4896,-2.05271 -6.36339,-4.88545 -2.83274,-2.87379 -4.88545,-6.32234 -2.05271,-3.48961 -3.16117,-7.47186 -1.10847,-4.02331 -1.10847,-8.37506 0,-4.35174 1.10847,-8.334 1.10846,-4.02331 3.16117,-7.51291 2.05271,-3.53066 4.88545,-6.40446 2.87379,-2.87379 6.36339,-4.88544 3.48961,-2.05271 7.47187,-3.16118 4.02331,-1.14951 8.37505,-1.14951 4.9265,0 9.27824,1.39584 4.3928,1.35479 8.2519,3.9412 0.69792,0.41054 1.0674,1.10846 0.36949,0.65687 -0.16421,1.51901 l -6.65078,9.60668 q -0.5337,0.65686 -1.06741,0.90319 -0.5337,0.20527 -1.4369,-0.36949 z" />
      <path
         id="path20269"
         style="font-style:normal;font-variant:normal;font-weight:normal;font-stretch:normal;font-size:82.10836792px;line-height:1.25;font-family:COCOGOOSE;-inkscape-font-specification:COCOGOOSE;fill:#ffffff;fill-opacity:1"
         d="m 312.57898,360.80628 q 0,-0.73897 0.4516,-1.27268 0.45159,-0.5337 1.35479,-0.5337 l 12.06993,0 q 0.61581,0 1.31373,0.49265 0.69792,0.49265 0.69792,1.31373 l 0,57.3527 q 0,1.80638 -2.01165,1.80638 l -12.06993,0 q -1.80639,0 -1.80639,-1.80638 l 0,-57.3527 z" />
      <path
         id="path20271"
         style="font-style:normal;font-variant:normal;font-weight:normal;font-stretch:normal;font-size:82.10836792px;line-height:1.25;font-family:COCOGOOSE;-inkscape-font-specification:COCOGOOSE;fill:#ffffff;fill-opacity:1"
         d="m 394.55777,389.54421 q 0,4.35175 -1.10846,8.29295 -1.10847,3.90014 -3.16117,7.30764 -2.05271,3.36645 -4.92651,6.11708 -2.83274,2.75063 -6.32234,4.68017 -3.44855,1.92955 -7.47186,2.99696 -4.02331,1.02635 -8.334,1.02635 l -20.23971,0 q -0.73898,0 -1.31374,-0.32843 -0.57476,-0.32843 -0.57476,-1.39584 l 0,-57.3527 q 0,-0.86214 0.4516,-1.39584 0.49265,-0.5337 1.4369,-0.5337 l 20.23971,0 q 4.31069,0 8.29294,1.0674 4.02331,1.06741 7.47187,3.03801 3.4896,1.9706 6.36339,4.72123 2.8738,2.75064 4.88545,6.15813 2.05271,3.4075 3.16117,7.3487 1.14952,3.9412 1.14952,8.25189 z m -37.56458,-15.84691 0,31.57066 3.44855,0 q 0.94425,0 1.84744,-0.0411 0.90319,-0.0821 1.80639,-0.16422 3.07906,-0.24632 5.74758,-1.47795 2.66852,-1.27268 4.63912,-3.28433 2.01166,-2.05271 3.12012,-4.80334 1.14952,-2.75063 1.14952,-5.99391 0,-3.44855 -1.31373,-6.32235 -1.27268,-2.91484 -3.48961,-5.00861 -2.21693,-2.13481 -5.21388,-3.28433 -2.9559,-1.19057 -6.32235,-1.19057 l -5.41915,0 z" />
      <path
         id="path20273"
         style="font-style:normal;font-variant:normal;font-weight:normal;font-stretch:normal;font-size:82.10836792px;line-height:1.25;font-family:COCOGOOSE;-inkscape-font-specification:COCOGOOSE;fill:#ffffff;fill-opacity:1"
         d="m 431.25124,360.80628 q 0,-0.73897 0.45159,-1.27268 0.4516,-0.5337 1.35479,-0.5337 l 12.06993,0 q 0.61581,0 1.31373,0.49265 0.69792,0.49265 0.69792,1.31373 l 0,57.3527 q 0,1.80638 -2.01165,1.80638 l -12.06993,0 q -1.80638,0 -1.80638,-1.80638 l 0,-57.3527 z" />
      <path
         id="path20275"
         style="font-style:normal;font-variant:normal;font-weight:normal;font-stretch:normal;font-size:82.10836792px;line-height:1.25;font-family:COCOGOOSE;-inkscape-font-specification:COCOGOOSE;fill:#ffffff;fill-opacity:1"
         d="m 459.81853,368.52447 q 0.5337,-0.4516 1.10846,-0.57476 0.61581,-0.12316 1.14952,-0.12316 l 6.19918,0 q 0.73897,0 1.27268,0.28738 0.5337,0.24632 0.90319,0.69792 0.36949,0.4516 0.57476,1.02635 0.24632,0.57476 0.45159,1.19058 l 0.86214,3.61276 q 0.61582,-1.27268 1.9706,-2.62746 1.39585,-1.35479 3.4075,-2.46326 2.05271,-1.10846 4.72123,-1.80638 2.66852,-0.73897 5.95286,-0.73897 4.68018,0 8.334,1.80638 3.69487,1.80638 6.24023,4.9265 2.58642,3.12012 3.90015,7.30765 1.35479,4.14647 1.35479,8.8677 l 0,26.89049 q 0,1.56006 -0.69792,2.38114 -0.65687,0.78003 -2.13482,0.78003 l -9.48352,0 q -1.76533,0 -2.42219,-0.57476 -0.65687,-0.61581 -0.65687,-2.34008 l 0,-26.72628 q 0,-1.76533 -0.82108,-3.32539 -0.78003,-1.60111 -2.09377,-2.79168 -1.31373,-1.23163 -2.99695,-1.92955 -1.64217,-0.69792 -3.36645,-0.69792 -1.47795,0 -3.038,0.65687 -1.51901,0.65686 -2.83274,1.84744 -1.27268,1.14951 -2.17588,2.75063 -0.86213,1.56006 -0.9853,3.40749 l 0,26.68522 q 0,0.69792 -0.28738,1.39585 -0.24632,0.69792 -0.78002,1.0674 -0.53371,0.32844 -1.02636,0.4516 -0.4516,0.12316 -1.06741,0.12316 l -9.27824,0 q -1.76533,0 -2.54536,-0.86214 -0.78003,-0.86213 -0.78003,-2.29903 l 0,-45.93963 q 0,-0.78003 0.32843,-1.4369 0.36949,-0.65686 0.9853,-1.02635 l -0.24632,0.12316 z" />
      <path
         id="path20277"
         style="font-style:normal;font-variant:normal;font-weight:normal;font-stretch:normal;font-size:82.10836792px;line-height:1.25;font-family:COCOGOOSE;-inkscape-font-specification:COCOGOOSE;fill:#ffffff;fill-opacity:1"
         d="m 525.88755,403.74896 q 1.10846,1.10846 2.38114,1.88849 1.31373,0.73898 2.50431,1.23163 1.19057,0.45159 2.09376,0.65686 0.90319,0.20528 1.23163,0.20528 0.78002,0 1.9706,-0.0411 1.23162,-0.0821 2.34008,-0.36949 1.10847,-0.32843 1.8885,-1.02635 0.82108,-0.69792 0.82108,-1.9706 0,-1.14952 -0.4516,-1.80639 -0.45159,-0.69792 -1.31373,-1.14951 -0.86214,-0.49265 -2.13482,-0.86214 -1.23162,-0.36949 -2.79168,-0.86214 -4.9265,-1.31373 -8.12873,-3.16117 -3.20223,-1.84744 -5.09072,-4.10542 -1.84744,-2.29903 -2.58641,-4.9265 -0.73898,-2.62747 -0.73898,-5.54232 0,-3.40749 1.35479,-6.19918 1.35479,-2.79168 3.85909,-4.76228 2.50431,-2.01166 5.99391,-3.07907 3.48961,-1.10846 7.75925,-1.10846 2.58641,0 4.84439,0.4516 2.25798,0.41054 4.31069,1.35478 2.05271,0.9032 3.98225,2.38115 1.97061,1.43689 3.90015,3.44855 0.69792,0.82108 0.69792,1.56006 0.0411,0.69792 -0.90319,1.519 -1.60111,1.31374 -3.07906,2.58642 -1.4369,1.27268 -2.99696,2.83273 -0.49265,0.41055 -0.9853,0.53371 -0.49265,0.0821 -0.94424,-0.0411 -0.4516,-0.12316 -0.86214,-0.41054 -0.41054,-0.28738 -0.73898,-0.69792 -1.43689,-1.60111 -3.28433,-2.13482 -1.84744,-0.57475 -3.44855,-0.57475 -2.01166,0 -3.20223,0.69792 -1.19057,0.69792 -1.10846,2.13481 0.0821,1.06741 0.78003,1.68323 0.73897,0.57475 1.76533,0.94424 1.0674,0.36949 2.21692,0.61581 1.19057,0.20528 2.17587,0.49265 3.69488,1.19058 6.77394,2.58642 3.07907,1.39584 5.33705,3.44855 2.25798,2.01166 3.4896,4.84439 1.27268,2.83274 1.27268,6.89711 0,4.06436 -1.64216,7.26659 -1.60112,3.20222 -4.43386,5.3781 -2.83273,2.17587 -6.73288,3.32538 -3.8591,1.14952 -8.334,1.14952 -2.54536,0 -5.17283,-0.45159 -2.62747,-0.4516 -5.09072,-1.4369 -2.46325,-1.02636 -4.68017,-2.58641 -2.21693,-1.60112 -3.94121,-3.8591 -0.45159,-0.57476 -0.69792,-1.19057 -0.20527,-0.65687 -0.20527,-1.27268 0.0411,-0.61581 0.24633,-1.10846 0.24632,-0.53371 0.73897,-0.90319 l 5.29599,-5.29599 q 0.9853,-0.82109 1.72428,-0.57476 0.78003,0.24632 1.9706,1.39584 z" />
      <path
         id="path20279"
         style="font-style:normal;font-variant:normal;font-weight:normal;font-stretch:normal;font-size:82.10836792px;line-height:1.25;font-family:COCOGOOSE;-inkscape-font-specification:COCOGOOSE;fill:#ffffff;fill-opacity:1"
         d="m 609.23781,413.72513 q -3.61277,3.32539 -8.12873,5.21388 -4.51596,1.84744 -9.56563,1.84744 -5.62442,0 -10.63303,-2.05271 -5.00861,-2.05271 -8.78559,-5.66548 -3.77699,-3.65382 -5.99392,-8.58032 -2.21692,-4.92651 -2.21692,-10.71515 0,-3.61277 0.86214,-6.97921 0.90319,-3.4075 2.5043,-6.3634 1.64217,-2.9559 3.9412,-5.41915 2.34009,-2.5043 5.21388,-4.26963 2.8738,-1.76533 6.24024,-2.75063 3.36644,-0.9853 7.10237,-0.9853 3.4075,0 6.60973,0.90319 3.20222,0.90319 5.99391,2.54536 2.83274,1.64216 5.17283,3.9412 2.34008,2.29903 4.02331,5.04966 1.68322,2.70958 2.58641,5.8297 0.94425,3.07906 0.94425,6.3634 0,2.13481 -0.0821,3.4896 -0.0411,1.35479 -0.61582,2.17587 -0.57475,0.78003 -1.92954,1.10847 -1.31374,0.28738 -3.90015,0.28738 l -29.55901,0 q 0.41054,2.62746 1.64217,4.39279 1.27268,1.76533 2.91484,2.83274 1.64217,1.02636 3.48961,1.47795 1.84744,0.4516 3.4896,0.4516 1.47795,0 3.03801,-0.28738 1.56006,-0.32843 2.99696,-0.82108 1.47795,-0.53371 2.66852,-1.19058 1.23163,-0.69792 1.9706,-1.43689 0.65687,-0.53371 1.10846,-0.78003 0.49266,-0.28738 1.02636,-0.28738 0.5337,0 1.06741,0.36949 0.57476,0.36948 1.27268,1.06741 l 4.35174,4.9265 q 0.4516,0.5337 0.57476,0.9853 0.12316,0.41054 0.12316,0.86214 0,0.82108 -0.45159,1.43689 -0.4516,0.57476 -1.06741,1.02636 z m -19.74706,-34.19814 q -1.60112,0 -3.12012,0.65687 -1.47795,0.61581 -2.79169,1.68322 -1.31373,1.06741 -2.38114,2.4222 -1.02635,1.35478 -1.68322,2.75063 l 20.97869,0 q -0.86214,-1.60112 -1.8885,-2.9559 -0.9853,-1.35479 -2.29903,-2.38115 -1.27268,-1.02635 -2.9559,-1.60111 -1.64217,-0.57476 -3.85909,-0.57476 z" />
      <path
         id="path20281"
         style="font-style:normal;font-variant:normal;font-weight:normal;font-stretch:normal;font-size:82.10836792px;line-height:1.25;font-family:COCOGOOSE;-inkscape-font-specification:COCOGOOSE;fill:#ffffff;fill-opacity:1"
         d="m 623.72352,359.69782 q 0,-1.27268 0.82109,-1.88849 0.86213,-0.65687 2.42219,-1.23163 l 9.3193,-3.24328 q 0.20527,-0.0411 0.36949,-0.0411 0.20527,0 0.36949,0 1.519,0 2.01165,0.90319 0.53371,0.86214 0.53371,2.29903 l -0.0411,11.2899 5.62443,0 q 1.31373,0 2.13481,0.78003 0.82109,0.78003 0.82109,2.34009 l 0,7.92346 q 0,1.72428 -0.82109,2.54536 -0.82108,0.78003 -2.13481,0.78003 l -5.62443,0 0.0411,34.64973 q 0,1.56006 -0.90319,2.38114 -0.9032,0.78003 -2.50431,0.78003 l -9.27824,0 q -3.16118,0 -3.16118,-3.16117 l -0.0411,-34.64973 -4.22858,0 q -3.16117,0 -3.16117,-3.32539 l 0,-7.92346 q 0,-3.12012 3.16117,-3.12012 l 4.22858,0 0.0411,-8.08767 z" />
      <path
         id="path20283"
         style="font-style:normal;font-variant:normal;font-weight:normal;font-stretch:normal;font-size:82.10836792px;line-height:1.25;font-family:COCOGOOSE;-inkscape-font-specification:COCOGOOSE;fill:#ffffff;fill-opacity:1"
         d="m 652.63848,393.93701 q 0,-3.77699 0.94425,-7.26659 0.9853,-3.48961 2.70958,-6.44551 1.76533,-2.99695 4.18752,-5.41915 2.46325,-2.46325 5.46021,-4.18753 2.99696,-1.72427 6.44551,-2.66852 3.4896,-0.94424 7.26659,-0.94424 5.58337,0 10.46881,2.09376 4.92651,2.05271 8.53927,5.70653 3.65383,3.61277 5.74759,8.53927 2.13482,4.88545 2.13482,10.59198 0,3.77698 -0.9853,7.26659 -0.94425,3.44855 -2.70958,6.44551 -1.72427,2.99695 -4.18753,5.4602 -2.42219,2.4222 -5.41915,4.18753 -2.99695,1.72428 -6.4455,2.66852 -3.4075,0.94425 -7.14343,0.94425 -3.77699,0 -7.26659,-0.94425 -3.44855,-0.94424 -6.44551,-2.66852 -2.99696,-1.76533 -5.46021,-4.18753 -2.42219,-2.46325 -4.18752,-5.4602 -1.72428,-2.99696 -2.70958,-6.44551 -0.94425,-3.48961 -0.94425,-7.26659 z m 14.98478,0 q 0,2.70958 0.82108,5.09072 0.86214,2.34009 2.38115,4.06436 1.56006,1.72428 3.73593,2.75063 2.21692,0.9853 4.96755,0.9853 2.66853,0 4.80334,-0.9853 2.17588,-1.02635 3.65383,-2.75063 1.519,-1.72427 2.29903,-4.06436 0.82108,-2.38114 0.82108,-5.09072 0,-2.62747 -0.82108,-5.00861 -0.78003,-2.38114 -2.29903,-4.18753 -1.47795,-1.80638 -3.65383,-2.83274 -2.13481,-1.0674 -4.80334,-1.0674 -2.75063,0 -4.96755,1.0674 -2.17587,1.02636 -3.73593,2.83274 -1.51901,1.80639 -2.38115,4.18753 -0.82108,2.38114 -0.82108,5.00861 z" />
      <path
         id="path20285"
         style="font-style:normal;font-variant:normal;font-weight:normal;font-stretch:normal;font-size:82.10836792px;line-height:1.25;font-family:COCOGOOSE;-inkscape-font-specification:COCOGOOSE;fill:#ffffff;fill-opacity:1"
         d="m 722.4986,403.74896 q 1.10846,1.10846 2.38114,1.88849 1.31374,0.73898 2.50431,1.23163 1.19057,0.45159 2.09376,0.65686 0.9032,0.20528 1.23163,0.20528 0.78003,0 1.9706,-0.0411 1.23162,-0.0821 2.34009,-0.36949 1.10846,-0.32843 1.88849,-1.02635 0.82108,-0.69792 0.82108,-1.9706 0,-1.14952 -0.45159,-1.80639 -0.4516,-0.69792 -1.31374,-1.14951 -0.86213,-0.49265 -2.13481,-0.86214 -1.23163,-0.36949 -2.79169,-0.86214 -4.9265,-1.31373 -8.12873,-3.16117 -3.20222,-1.84744 -5.09072,-4.10542 -1.84743,-2.29903 -2.58641,-4.9265 -0.73897,-2.62747 -0.73897,-5.54232 0,-3.40749 1.35478,-6.19918 1.35479,-2.79168 3.8591,-4.76228 2.5043,-2.01166 5.99391,-3.07907 3.4896,-1.10846 7.75924,-1.10846 2.58641,0 4.84439,0.4516 2.25798,0.41054 4.31069,1.35478 2.05271,0.9032 3.98226,2.38115 1.9706,1.43689 3.90015,3.44855 0.69792,0.82108 0.69792,1.56006 0.0411,0.69792 -0.9032,1.519 -1.60111,1.31374 -3.07906,2.58642 -1.4369,1.27268 -2.99695,2.83273 -0.49266,0.41055 -0.98531,0.53371 -0.49265,0.0821 -0.94424,-0.0411 -0.4516,-0.12316 -0.86214,-0.41054 -0.41054,-0.28738 -0.73897,-0.69792 -1.4369,-1.60111 -3.28434,-2.13482 -1.84744,-0.57475 -3.44855,-0.57475 -2.01166,0 -3.20223,0.69792 -1.19057,0.69792 -1.10846,2.13481 0.0821,1.06741 0.78003,1.68323 0.73897,0.57475 1.76533,0.94424 1.06741,0.36949 2.21693,0.61581 1.19057,0.20528 2.17587,0.49265 3.69487,1.19058 6.77394,2.58642 3.07906,1.39584 5.33704,3.44855 2.25798,2.01166 3.48961,4.84439 1.27268,2.83274 1.27268,6.89711 0,4.06436 -1.64217,7.26659 -1.60111,3.20222 -4.43385,5.3781 -2.83274,2.17587 -6.73289,3.32538 -3.85909,1.14952 -8.334,1.14952 -2.54536,0 -5.17283,-0.45159 -2.62746,-0.4516 -5.09071,-1.4369 -2.46326,-1.02636 -4.68018,-2.58641 -2.21693,-1.60112 -3.9412,-3.8591 -0.4516,-0.57476 -0.69792,-1.19057 -0.20527,-0.65687 -0.20527,-1.27268 0.0411,-0.61581 0.24632,-1.10846 0.24633,-0.53371 0.73898,-0.90319 l 5.29599,-5.29599 q 0.9853,-0.82109 1.72427,-0.57476 0.78003,0.24632 1.9706,1.39584 z" />
    </g>
    <g
       id="text19673"
       style="font-style:normal;font-weight:normal;font-size:58.61969376px;line-height:0%;font-family:sans-serif;letter-spacing:0px;word-spacing:0px;opacity:1;fill:#000000;fill-opacity:1;stroke:none;stroke-width:1px;stroke-linecap:butt;stroke-linejoin:miter;stroke-opacity:1">
      <path
         id="path20258"
         style="font-style:normal;font-variant:normal;font-weight:normal;font-stretch:normal;font-size:134.33679199px;line-height:1.25;font-family:COCOGOOSE;-inkscape-font-specification:COCOGOOSE;fill:#ffffff"
         d="m 272.64146,506.21702 q 1.14187,0.94036 2.88824,2.5524 1.81355,1.54488 4.09728,3.08975 3.42558,2.28373 6.784,3.55992 3.35842,1.2762 7.05269,1.2762 3.42558,0 5.70931,-0.73885 2.35089,-0.80602 3.69426,-2.08222 1.34337,-1.2762 1.88072,-2.95541 0.60451,-1.67921 0.60451,-3.55992 0,-2.08222 -1.61204,-3.69426 -1.54487,-1.67921 -3.8286,-2.95541 -2.28372,-1.2762 -4.76895,-2.14939 -2.48524,-0.94036 -4.29878,-1.54488 -8.06021,-2.82107 -14.10537,-6.04515 -6.04515,-3.29125 -10.07525,-7.25419 -4.03011,-4.0301 -6.04516,-8.79906 -2.01505,-4.83612 -2.01505,-10.74694 0,-6.24666 2.48523,-11.35146 2.5524,-5.1048 7.18702,-8.73189 4.70178,-3.6271 11.28429,-5.57498 6.5825,-2.01505 14.70988,-2.01505 6.11232,0 11.6873,1.41054 5.64214,1.34336 11.08278,4.36594 2.28373,1.34337 4.29878,2.82107 2.08222,1.41054 3.62709,2.75391 1.54488,1.34337 2.41807,2.5524 0.94035,1.20903 0.94035,2.08222 0,0.87319 -0.47018,1.61204 -0.40301,0.73885 -1.2762,1.67921 l -10.27676,10.94845 q -1.14186,1.14186 -2.28373,1.14186 -0.94035,0 -1.74637,-0.53735 -0.73886,-0.53734 -1.67921,-1.34336 l -0.60452,-0.53735 q -1.34337,-1.14186 -3.02258,-2.3509 -1.61204,-1.20903 -3.49275,-2.14938 -1.88072,-1.00753 -3.96294,-1.61205 -2.08222,-0.67168 -4.23161,-0.67168 -2.21655,0 -4.16444,0.40301 -1.94788,0.33584 -3.42559,1.14186 -1.4777,0.80602 -2.35089,2.14939 -0.87319,1.2762 -0.87319,3.15692 0,1.88071 0.94036,3.29125 0.94036,1.34337 2.82107,2.5524 1.88072,1.14186 4.63462,2.21655 2.82107,1.00753 6.51533,2.21656 7.11985,2.35089 13.09784,4.97046 6.04516,2.5524 10.4111,6.11233 4.36595,3.49275 6.78401,8.39605 2.48523,4.90329 2.48523,11.8888 0,7.38853 -3.02258,13.43368 -3.02257,5.97799 -8.32888,10.2096 -5.23913,4.23161 -12.35898,6.5825 -7.11985,2.28373 -15.3144,2.28373 -7.72436,0 -15.18005,-2.75391 -7.4557,-2.7539 -13.90386,-7.38852 -2.68674,-1.94789 -4.56745,-3.8286 -1.81355,-1.88072 -2.88824,-3.02258 l -0.20151,-0.2015 q -0.0672,-0.13434 -0.13434,-0.13434 -0.0672,-0.0672 -0.13433,-0.13434 -0.0672,-0.13433 -0.13434,-0.13433 -0.0672,-0.0672 -0.13434,-0.13434 -1.54487,-1.67921 -1.54487,-2.68674 0,-1.14186 1.54487,-2.5524 l 11.62014,-11.08278 q 1.41053,-1.00753 2.28372,-1.00753 0.60452,0 1.2762,0.40301 0.67169,0.40301 1.61204,1.20903 z" />
      <path
         id="path20260"
         style="font-style:normal;font-variant:normal;font-weight:normal;font-stretch:normal;font-size:134.33679199px;line-height:1.25;font-family:COCOGOOSE;-inkscape-font-specification:COCOGOOSE;fill:#ffffff"
         d="m 369.53188,488.55174 q 0,5.57497 1.88071,10.4111 1.88072,4.83612 5.23914,8.46322 3.42559,3.55992 8.06021,5.64214 4.63461,2.01505 10.20959,2.01505 5.57498,0 10.2096,-2.01505 4.70179,-2.08222 8.06021,-5.64214 3.42558,-3.6271 5.3063,-8.46322 1.88071,-4.83613 1.88071,-10.4111 0,-5.50781 -1.88071,-10.34394 -1.88072,-4.90329 -5.3063,-8.53038 -3.35842,-3.6271 -8.06021,-5.70932 -4.63462,-2.08222 -10.2096,-2.08222 -5.57498,0 -10.20959,2.08222 -4.63462,2.08222 -8.06021,5.70932 -3.35842,3.62709 -5.23914,8.53038 -1.88071,4.83613 -1.88071,10.34394 z m -25.927,0.0672 q 0,-7.11985 1.81354,-13.63518 1.81355,-6.5825 5.17197,-12.29182 3.35842,-5.77648 7.99304,-10.47827 4.70179,-4.70178 10.4111,-7.99304 5.70931,-3.35841 12.22465,-5.17196 6.5825,-1.88072 13.70235,-1.88072 7.05268,0 13.63519,1.88072 6.5825,1.81355 12.29181,5.17196 5.70932,3.29126 10.4111,7.99304 4.70179,4.70179 7.99304,10.47827 3.35842,5.70932 5.17197,12.29182 1.88071,6.51533 1.88071,13.63518 0,7.11985 -1.88071,13.70236 -1.81355,6.51533 -5.17197,12.22465 -3.29125,5.64214 -7.99304,10.34393 -4.70178,4.63462 -10.4111,7.99304 -5.70931,3.35842 -12.29181,5.17196 -6.58251,1.81355 -13.63519,1.81355 -7.11985,0 -13.70235,-1.81355 -6.51534,-1.81354 -12.22465,-5.17196 -5.70931,-3.35842 -10.4111,-7.99304 -4.63462,-4.70179 -7.99304,-10.34393 -3.35842,-5.70932 -5.17197,-12.22465 -1.81354,-6.58251 -1.81354,-13.70236 z" />
      <path
         id="path20262"
         style="font-style:normal;font-variant:normal;font-weight:normal;font-stretch:normal;font-size:134.33679199px;line-height:1.25;font-family:COCOGOOSE;-inkscape-font-specification:COCOGOOSE;fill:#ffffff"
         d="m 475.33049,441.33235 q 0,-2.48523 2.61956,-2.68673 l 19.81468,0 q 3.62709,0 3.62709,3.49275 l 0,92.02071 q 0,6.64967 -2.68673,12.42615 -2.61957,5.84365 -7.11985,10.14243 -4.50028,4.36594 -10.47827,6.85117 -5.91082,2.48524 -12.49332,2.48524 -3.89577,0 -7.6572,-0.87319 -3.76143,-0.87319 -7.18702,-2.61957 -3.35842,-1.67921 -6.24666,-4.23161 -2.95541,-2.48523 -5.17197,-5.77648 -0.2015,-0.0672 -0.2015,-1.0747 0,-1.74638 1.07469,-2.5524 l 11.6873,-10.94844 q 0.53735,-0.47018 1.14187,-0.73886 0.60451,-0.33584 1.14186,-0.33584 1.00753,0 1.88072,0.73885 0.94035,0.73886 2.01505,1.61205 1.14186,0.94035 2.61956,1.67921 1.47771,0.73885 3.55993,0.73885 1.54487,0 3.02258,-0.60452 1.4777,-0.60451 2.5524,-1.61204 1.14186,-1.00753 1.81354,-2.35089 0.67169,-1.41054 0.67169,-2.95541 l 0,-92.82673 z" />
      <path
         id="path20264"
         style="font-style:normal;font-variant:normal;font-weight:normal;font-stretch:normal;font-size:134.33679199px;line-height:1.25;font-family:COCOGOOSE;-inkscape-font-specification:COCOGOOSE;fill:#ffffff"
         d="m 551.79121,441.26519 q 0.0672,-0.40301 0.40301,-0.87319 0.40301,-0.47018 0.94035,-0.87319 0.53735,-0.40301 1.14187,-0.60452 0.60451,-0.26867 1.14186,-0.26867 l 17.19511,0 q 1.14186,0 1.94788,0.73885 0.80602,0.67168 1.20903,1.20903 l 1.67921,3.8286 35.26341,90.94601 q 0.53735,1.34337 -0.2015,2.21656 -0.73886,0.80602 -2.5524,0.80602 l -19.27733,0 q -1.54488,0 -2.41806,-0.53735 -0.80602,-0.60452 -1.2762,-1.94788 -1.34337,-3.42559 -2.61957,-6.78401 -1.2762,-3.42559 -2.5524,-6.85118 l -35.66642,0 q -1.2762,3.42559 -2.61957,6.85118 -1.2762,3.35842 -2.55239,6.78401 -0.87319,2.48523 -3.42559,2.48523 l -19.81468,0 q -1.2762,0 -2.14939,-0.67169 -0.80602,-0.67168 -0.26867,-2.01505 l 36.47244,-94.43876 z m 12.22464,28.74807 q -1.27619,3.42559 -2.61956,7.38852 -1.2762,3.96294 -2.5524,7.99304 -1.2762,4.03011 -2.61957,7.99304 -1.2762,3.89577 -2.5524,7.32136 l 20.6207,0 -10.27677,-30.69596 z" />
    </g>
    <path
       style="color:#000000;clip-rule:nonzero;display:inline;overflow:visible;visibility:visible;opacity:1;isolation:auto;mix-blend-mode:normal;color-interpolation:sRGB;color-interpolation-filters:linearRGB;solid-color:#000000;solid-opacity:1;fill:#ffffff;fill-opacity:0.99607843;fill-rule:nonzero;stroke:none;stroke-width:3.65570831;stroke-linecap:round;stroke-linejoin:round;stroke-miterlimit:4;stroke-dasharray:none;stroke-dashoffset:0;stroke-opacity:0.99607843;marker:none;color-rendering:auto;image-rendering:auto;shape-rendering:auto;text-rendering:auto;enable-background:accumulate"
       d="m 65.142013,314.97278 c -2.404063,0.065 -4.828783,0.7152 -7.066063,2.0068 -7.15872,4.1332 -9.595098,13.2227 -5.461937,20.3816 l 19.015477,32.937 c -7.832233,6.5649 -14.317689,14.6682 -19.026567,23.8494 l -21.108366,-5.6561 c -8.373189,-2.2435 -16.922162,2.69 -19.165607,11.0632 -2.243693,8.3735 2.691851,16.922 11.06504,19.1657 l 20.8997,5.5993 c -0.107007,1.6689 -0.166535,3.3515 -0.166535,5.0483 l 0,23.8659 -24.82728,0 c -8.668594,0 -15.6481647,6.9796 -15.6481647,15.6482 0,8.6686 6.9795707,15.6464 15.6481647,15.6464 l 24.82728,0 0,23.9612 c 0,0.2778 0.01063,0.554 0.01063,0.8313 l -20.742201,5.5572 c -8.373153,2.2437 -13.308732,10.7922 -11.065004,19.1657 2.24341,8.3732 10.792488,13.3067 19.165677,11.0632 l 19.301174,-5.1709 c 11.987433,26.8996 38.899205,45.5731 70.349029,45.5731 26.85696,0 50.39391,-13.625 64.16384,-34.3543 l -26.17303,-26.173 c -10.44124,6.7121 -22.37467,10.4407 -35.79902,10.4407 -37.289803,0 -67.120977,-29.8312 -67.120977,-67.121 0,-37.2898 29.831174,-67.121 67.120977,-67.121 37.28983,0 67.12097,29.8312 67.12097,67.121 0,13.4243 -3.72852,25.3578 -10.44064,35.7989 l 35.79888,35.7971 c 1.52777,1.1458 2.65869,2.6875 3.40399,4.5154 4.29441,-1.8078 7.73709,-5.4998 9.0417,-10.3692 2.24373,-8.3735 -2.68997,-16.922 -11.06316,-19.1657 l -19.05034,-5.105 c 0.0106,-0.4274 0.0142,-0.8544 0.0142,-1.2835 l 0,-23.9612 22.64287,0 c 8.66852,0 15.64632,-6.9778 15.64632,-15.6464 0,-8.6686 -6.9778,-15.6482 -15.64632,-15.6482 l -22.64287,0 0,-23.8659 c 0,-1.8482 -0.0695,-3.6802 -0.19594,-5.495 l 19.23161,-5.1526 c 8.37316,-2.2437 13.30696,-10.7922 11.06324,-19.1657 -2.24352,-8.3732 -10.79061,-13.3067 -19.1638,-11.0632 l -19.61607,5.2551 c -4.98947,-9.589 -11.93053,-17.9781 -20.31197,-24.6551 l 18.31978,-31.7303 c 4.13316,-7.1589 1.69678,-16.2484 -5.46208,-20.3816 -7.15882,-4.1331 -16.24836,-1.6968 -20.38153,5.4621 l -19.00997,32.926 c -6.81648,-1.9635 -14.02604,-3.0194 -21.49108,-3.0194 -8.14819,0 -15.98942,1.2611 -23.349653,3.5852 l -19.337704,-33.4937 c -2.841591,-4.9217 -8.026158,-7.6099 -13.3155,-7.467 z m 58.196407,116.0395 c -20.88223,0 -37.289407,16.4071 -37.289407,37.2894 0,20.8822 16.407177,37.2894 37.289407,37.2894 20.88227,0 37.28945,-16.4072 37.28945,-37.2894 0,-20.8823 -16.40718,-37.2894 -37.28945,-37.2894 z"
       id="path19677" />
  </g>
</svg>
